<?xml version="1.0" encoding="UTF-8"?>
<svg version="1.1" xmlns="http://www.w3.org/2000/svg" width="1024" height="1024">
<path d="M0 0 C1.66624451 1.16015625 1.66624451 1.16015625 3 3 C4.41066591 12.58650478 2.22170412 22.55455819 0.55859375 32 C0.28897337 33.57183733 0.01948163 35.14369674 -0.24989319 36.71557617 C-3.56510731 55.84356166 -7.44844791 74.86410166 -11.30720901 93.88812637 C-12.39181696 99.2430544 -13.46917612 104.59943942 -14.54663086 109.95581055 C-14.76827565 111.05764144 -14.98992044 112.15947233 -15.21828175 113.29469204 C-15.6729405 115.5550191 -16.12756594 117.81535286 -16.58215904 120.07569313 C-17.27818679 123.53532527 -17.97495251 126.99480818 -18.67182922 130.45426941 C-24.19708411 157.89475279 -29.62817289 185.35389367 -35.0625 212.8125 C-36.68188241 220.99423526 -38.30155482 229.17591296 -39.92194557 237.35744858 C-40.37039037 239.62192473 -40.81872386 241.88642293 -41.26694298 244.15094376 C-43.83598149 257.12914979 -46.41847847 270.10453844 -49.02294922 283.07568359 C-49.27293262 284.32158988 -49.52291601 285.56749617 -49.78047466 286.85115719 C-50.97838929 292.82095023 -52.17821789 298.79034475 -53.3818512 304.75898743 C-55.25318447 314.05909062 -57.1165585 323.36066891 -58.81274414 332.69458008 C-59.16267174 334.61697258 -59.16267174 334.61697258 -59.51966858 336.57820129 C-59.9722074 339.80201026 -60.22752329 342.7527637 -60 346 C-58.20058851 348.20049178 -58.20058851 348.20049178 -55.5625 350 C-54.55960938 350.76699219 -53.55671875 351.53398437 -52.5234375 352.32421875 C-51.96237305 352.74622559 -51.40130859 353.16823242 -50.82324219 353.60302734 C-47.37096667 356.24816935 -44.03815036 359.04060177 -40.6875 361.8125 C-39.96103271 362.41022217 -39.23456543 363.00794434 -38.48608398 363.6237793 C-33.23188381 367.95361325 -28.04670408 372.35747968 -22.89404297 376.80737305 C-19.41378857 379.80764446 -15.887691 382.73754023 -12.3125 385.625 C-7.62186124 389.42970552 -3.17714498 393.45332599 1.26171875 397.546875 C3.87533731 399.8883193 6.56051146 402.07419647 9.3125 404.25 C13.98909672 408.02777105 18.30017387 412.08133363 22.5625 416.3125 C23.1706958 416.9115918 23.7788916 417.51068359 24.40551758 418.12792969 C24.97423584 418.7005957 25.5429541 419.27326172 26.12890625 419.86328125 C26.63494385 420.37157471 27.14098145 420.87986816 27.66235352 421.40356445 C29.92826821 424.10785651 31.06661181 426.0674346 30.8125 429.625 C30 432 30 432 27 434 C19.35465137 434.83272665 11.5555261 433.63876392 4 432.5 C2.86876709 432.33274414 1.73753418 432.16548828 0.57202148 431.99316406 C-11.27334373 430.13325971 -22.91719279 427.43497813 -34.57226562 424.64257812 C-35.66795616 424.38163361 -35.66795616 424.38163361 -36.78578186 424.11541748 C-38.77887742 423.6388942 -40.77023873 423.15513395 -42.76147461 422.67089844 C-46.10159131 421.86476361 -46.10159131 421.86476361 -50 422 C-50 421.34 -50 420.68 -50 420 C-50.9075 419.896875 -51.815 419.79375 -52.75 419.6875 C-58.26282152 418.91456832 -63.62115462 417.40432909 -69 416 C-69.15927979 416.61093506 -69.31855957 417.22187012 -69.48266602 417.85131836 C-71.25837291 424.24276214 -73.68733817 429.79324569 -76.9375 435.5625 C-77.4111499 436.41513428 -77.8847998 437.26776855 -78.37280273 438.14624023 C-82.99058658 446.28865831 -88.27319669 453.90405164 -93.84594727 461.41625977 C-94.93820795 462.91520097 -95.97120561 464.45680842 -97 466 C-97.66 466 -98.32 466 -99 466 C-99.21785156 466.53367187 -99.43570312 467.06734375 -99.66015625 467.6171875 C-101.48169789 470.85666388 -103.91178045 473.42997398 -106.4375 476.125 C-106.97391113 476.69903564 -107.51032227 477.27307129 -108.06298828 477.86450195 C-124.80193132 495.58099138 -144.59815698 509.68865496 -168 517 C-168.99 517 -169.98 517 -171 517 C-170.71125 518.10859375 -170.4225 519.2171875 -170.125 520.359375 C-169.74974938 521.82285243 -169.37476322 523.28639768 -169 524.75 C-168.71382812 525.84441406 -168.71382812 525.84441406 -168.421875 526.9609375 C-167.53484036 530.44571646 -167 533.38123722 -167 537 C-165.74509766 537.03867188 -165.74509766 537.03867188 -164.46484375 537.078125 C-151.13881327 537.72745539 -138.86694934 540.79721682 -127 547 C-126.04738281 547.49113281 -125.09476563 547.98226562 -124.11328125 548.48828125 C-112.8676981 554.64762679 -102.95394287 562.93103141 -95 573 C-93.90171875 574.30904297 -93.90171875 574.30904297 -92.78125 575.64453125 C-83.61803741 586.9390607 -71.28519346 602.98405604 -69.5625 617.75 C-70 621 -70 621 -71.49951172 622.60229492 C-74.98565213 624.55095279 -78.54943656 625.03126416 -82.4453125 625.61328125 C-83.69612862 625.81529648 -83.69612862 625.81529648 -84.97221375 626.02139282 C-86.75979493 626.30998236 -88.54811267 626.59403928 -90.33706665 626.87399292 C-95.02799546 627.61181741 -99.71135394 628.39436209 -104.39453125 629.1796875 C-105.31983139 629.33467209 -106.24513153 629.48965668 -107.19847107 629.64933777 C-154.07378524 637.58804885 -200.07401257 653.77802405 -243 674 C-244.02947754 674.48194824 -245.05895508 674.96389648 -246.11962891 675.46044922 C-261.71985879 682.78468297 -276.99015039 690.53410885 -292 699 C-293.11052734 699.62310059 -294.22105469 700.24620117 -295.36523438 700.88818359 C-309.34029625 708.73469836 -323.12873629 716.79734012 -336.609375 725.47314453 C-341.1919637 728.39997355 -345.8155035 731.26097113 -350.4375 734.125 C-351.33267334 734.6821167 -352.22784668 735.2392334 -353.15014648 735.81323242 C-353.98618408 736.33119385 -354.82222168 736.84915527 -355.68359375 737.3828125 C-356.42150146 737.84059082 -357.15940918 738.29836914 -357.91967773 738.77001953 C-363.45067443 742.04019455 -363.45067443 742.04019455 -366.5625 741.8125 C-369.25147221 740.91617593 -370.24377328 740.18727772 -372 738 C-373.17148047 731.67449561 -371.50332152 724.67709092 -370.375 718.4375 C-370.19606201 717.44153809 -370.01712402 716.44557617 -369.83276367 715.41943359 C-361.44061793 670.20590778 -343.56708162 619.57876489 -307.9453125 588.2734375 C-302.34303108 583.60794317 -302.34303108 583.60794317 -299.4921875 577.1875 C-299.73815054 574.62352162 -300.18152924 572.43722404 -301 570 C-301.33 569.01 -301.66 568.02 -302 567 C-305.47873584 565.58081424 -309.38241632 565.74391071 -313.08984375 565.5703125 C-314.51898735 565.49847614 -315.94810431 565.42610833 -317.37719727 565.35327148 C-318.12236603 565.31628143 -318.86753479 565.27929138 -319.63528442 565.24118042 C-332.83028741 564.57529969 -345.80408162 563.53560514 -358.84423828 561.32373047 C-361.93312682 560.85987246 -365.03664945 560.60460793 -368.15014648 560.36352539 C-370 560 -370 560 -372 558 C-373.29965511 557.38487583 -374.62592757 556.82498028 -375.96484375 556.30078125 C-377.1569043 555.82330444 -377.1569043 555.82330444 -378.37304688 555.33618164 C-379.64245117 554.82945923 -379.64245117 554.82945923 -380.9375 554.3125 C-393.16432491 549.28000644 -403.01731125 542.68196164 -413 534 C-413.62519531 533.47148438 -414.25039063 532.94296875 -414.89453125 532.3984375 C-430.06490012 518.54259708 -439.28212611 496.04666439 -440.3125 475.84765625 C-440.61155909 466.2972508 -440.54959321 457.67266206 -436 449 C-433.28698106 449.60880381 -431.25056476 450.35350719 -428.6875 451.5625 C-424.82330331 453.06888176 -422.10371662 453.25124796 -418 453 C-418 451.02 -418 449.04 -418 447 C-418.81984375 446.62488281 -419.6396875 446.24976563 -420.484375 445.86328125 C-421.56203125 445.35152344 -422.6396875 444.83976562 -423.75 444.3125 C-424.81734375 443.81363281 -425.8846875 443.31476563 -426.984375 442.80078125 C-432.16442195 439.70751487 -434.62375609 435.55648763 -436.51953125 429.984375 C-437.2589979 426.9303176 -437.05063099 424.95489967 -436 422 C-433.09484584 417.93278418 -430.2401833 416.63925409 -425.625 415.1875 C-418.53297886 412.78536381 -415.11277364 408.86187314 -411.5703125 402.38671875 C-408.72396043 396.43295865 -406.74948771 390.35340273 -405 384 C-399.39 384 -393.78 384 -388 384 C-386.75039578 388.99841688 -386.62740908 393.84650609 -386.37890625 398.98046875 C-386.25386719 399.97691406 -386.12882812 400.97335937 -386 402 C-385.34 402.33 -384.68 402.66 -384 403 C-383.86722656 403.86753906 -383.73445313 404.73507812 -383.59765625 405.62890625 C-382.90547149 409.53319021 -381.40309398 412.55218187 -379.4375 415.9375 C-378.90177368 416.86054932 -378.90177368 416.86054932 -378.35522461 417.80224609 C-372.85604992 426.90441153 -365.6414697 431.64877855 -355.5625 434.75 C-343.11506997 435.96438342 -334.07241493 433.53805562 -323.765625 426.296875 C-319.48534456 422.74206582 -316.69570031 418.83341965 -314 414 C-313.54109375 413.19175781 -313.0821875 412.38351562 -312.609375 411.55078125 C-308.3675827 403.20773797 -306.79396331 394.11012651 -305 385 C-301.70880065 384.8035969 -298.41703066 384.61939255 -295.125 384.4375 C-294.18785156 384.38142578 -293.25070312 384.32535156 -292.28515625 384.26757812 C-291.38925781 384.21923828 -290.49335938 384.17089844 -289.5703125 384.12109375 C-288.74289551 384.0739624 -287.91547852 384.02683105 -287.06298828 383.97827148 C-285 384 -285 384 -283 385 C-281.01569313 385.15414681 -279.02656546 385.24763694 -277.03735352 385.31298828 C-275.78588028 385.35618195 -274.53440704 385.39937561 -273.24501038 385.44387817 C-271.87298374 385.48628497 -270.50094878 385.52842323 -269.12890625 385.5703125 C-267.72646785 385.61586802 -266.3240377 385.66167831 -264.9216156 385.70773315 C-261.98030332 385.80320691 -259.03890727 385.89520699 -256.09741211 385.98486328 C-252.32646167 386.10013251 -248.55587791 386.22454569 -244.78530979 386.3516407 C-241.88839982 386.44818065 -238.9913449 386.53957881 -236.09422112 386.62945175 C-234.70389445 386.67325757 -233.31361939 386.71873376 -231.92340279 386.76590347 C-229.97978507 386.8311337 -228.03591295 386.88864575 -226.09204102 386.94580078 C-224.98554703 386.98053497 -223.87905304 387.01526917 -222.73902893 387.05105591 C-219.90619899 387.13456206 -219.90619899 387.13456206 -217 386 C-215.00179272 385.90564021 -213.00042797 385.87009699 -211 385.875 C-209.948125 385.87242187 -208.89625 385.86984375 -207.8125 385.8671875 C-205 386 -205 386 -202 387 C-201.01 386.67 -200.02 386.34 -199 386 C-199.71563266 383.9837767 -199.71563266 383.9837767 -201 382 C-204.71477206 380.60567032 -208.75636683 380.71021139 -212.67993164 380.53515625 C-213.83471764 380.47882523 -213.83471764 380.47882523 -215.01283264 380.4213562 C-217.56177463 380.29795182 -220.11094649 380.18023209 -222.66015625 380.0625 C-224.44740002 379.97700718 -226.23462617 379.89114503 -228.02183533 379.80493164 C-232.74081479 379.57822782 -237.46000564 379.35626834 -242.17926025 379.13537598 C-247.8441489 378.86939399 -253.50877937 378.59798377 -259.1734457 378.32731628 C-263.59815617 378.11599469 -268.0228979 377.90543976 -272.44776917 377.69750977 C-283.63400661 377.17051773 -294.8174183 376.59954257 -306 376 C-305.99009033 374.89696533 -305.98018066 373.79393066 -305.9699707 372.6574707 C-306.06853158 360.65307666 -312.63768069 349.68229253 -320.66796875 341.19921875 C-329.07274453 333.27310692 -337.87229718 331.50760035 -349.2734375 331.6875 C-358.52387118 332.46321771 -366.34460133 336.98476375 -372.6171875 343.7421875 C-379.71958018 352.61097836 -383.75383577 363.2303728 -387 374 C-389.64680904 373.88660796 -392.29177518 373.75987127 -394.9375 373.625 C-395.69224609 373.5940625 -396.44699219 373.563125 -397.22460938 373.53125 C-399.15507395 373.4273685 -401.07942081 373.22104386 -403 373 C-404.2299708 370.5400584 -404.50554255 368.34526094 -404.9375 365.625 C-405.19853516 364.02591797 -405.19853516 364.02591797 -405.46484375 362.39453125 C-405.82296915 360.12291828 -406.16924349 357.84940668 -406.50390625 355.57421875 C-406.74947266 353.95966797 -406.74947266 353.95966797 -407 352.3125 C-407.144375 351.31863281 -407.28875 350.32476562 -407.4375 349.30078125 C-407.623125 348.54152344 -407.80875 347.78226562 -408 347 C-408.66 346.67 -409.32 346.34 -410 346 C-410.28875 345.113125 -410.5775 344.22625 -410.875 343.3125 C-413.62124289 335.22634038 -419.89739104 328.88182014 -427.5 325.0625 C-428.325 324.711875 -429.15 324.36125 -430 324 C-429.12134277 318.75117916 -428.14793762 313.54299765 -426.90625 308.3671875 C-426.71643555 307.56458496 -426.52662109 306.76198242 -426.33105469 305.93505859 C-425.94648928 304.32343869 -425.55144493 302.71428008 -425.14550781 301.10791016 C-424.66820195 299.09218402 -424.32435238 297.04591502 -424 295 C-426.21234099 291.68148852 -427.38297084 291.09381284 -430.91015625 289.44140625 C-432.39612305 288.73854492 -432.39612305 288.73854492 -433.91210938 288.02148438 C-434.95173828 287.54001953 -435.99136719 287.05855469 -437.0625 286.5625 C-438.07505859 286.08490234 -439.08761719 285.60730469 -440.13085938 285.11523438 C-445.40408263 282.63671745 -450.69570331 280.22652172 -456.06640625 277.96630859 C-460.52947477 275.73590137 -464.01853691 272.64885798 -466.5625 268.375 C-467.10953949 265.40535706 -466.65271204 264.48896454 -465 262 C-463.06640625 260.98046875 -463.06640625 260.98046875 -460.5625 260.1875 C-459.59570312 259.86136719 -458.62890625 259.53523438 -457.6328125 259.19921875 C-455.83457031 258.60560547 -455.83457031 258.60560547 -454 258 C-450.63600012 256.86021911 -447.28554563 255.68572023 -443.9375 254.5 C-443.09195557 254.21535889 -442.24641113 253.93071777 -441.37524414 253.63745117 C-440.57981201 253.35490479 -439.78437988 253.0723584 -438.96484375 252.78125 C-438.2493335 252.53439453 -437.53382324 252.28753906 -436.79663086 252.03320312 C-434.51754611 250.72255132 -434.07578461 249.34547191 -433 247 C-433.40676468 246.59323532 -433.81352936 246.18647064 -434.23262024 245.76737976 C-444.82174683 235.17825317 -455.41087341 224.58912659 -466 214 C-466.56450363 213.47674637 -467.12900726 212.95349274 -467.71061707 212.41438293 C-469 211 -469 211 -469 209 C-469.66 209 -470.32 209 -471 209 C-471 208.34 -471 207.68 -471 207 C-471.60070312 206.73703125 -472.20140625 206.4740625 -472.8203125 206.203125 C-475.13396304 204.92605624 -476.22985567 203.79531457 -477.875 201.75 C-481.37165473 197.60245283 -485.14369067 193.80779594 -489 190 C-493.87846818 185.16231849 -498.63399334 180.31271729 -503 175 C-503.6496875 174.25105469 -504.299375 173.50210938 -504.96875 172.73046875 C-509.85199814 166.88801115 -509.85199814 166.88801115 -510.5625 162.625 C-510 160 -510 160 -508 157 C-500.44930334 154.48310111 -492.99678416 156.67269283 -485.5 158.4375 C-477.54368905 160.31995167 -477.54368905 160.31995167 -469.46875 161.53515625 C-466 162 -466 162 -463 164 C-460.75979276 164.78881049 -458.49942567 165.52081227 -456.23046875 166.22265625 C-454.79309546 166.67376479 -453.35593164 167.12554116 -451.91894531 167.57788086 C-451.15118774 167.81828094 -450.38343018 168.05868103 -449.59240723 168.30636597 C-419.72732753 177.69633449 -390.44305699 188.80439915 -361.3125 200.25 C-360.64835083 200.51054169 -359.98420166 200.77108337 -359.29992676 201.03952026 C-352.20823623 203.82917592 -345.26671115 206.7126016 -338.48901367 210.20605469 C-335.2221266 211.24812597 -333.29509608 210.90717659 -330 210 C-327.15033871 208.56876928 -327.15033871 208.56876928 -324.3671875 206.68359375 C-323.31273437 206.00103516 -322.25828125 205.31847656 -321.171875 204.61523438 C-320.08390625 203.89658203 -318.9959375 203.17792969 -317.875 202.4375 C-316.27785156 201.40012695 -316.27785156 201.40012695 -314.6484375 200.34179688 C-308.3028786 196.21025276 -302.00425892 192.00952996 -295.72167969 187.78295898 C-292.20249312 185.47755716 -288.60063844 183.33499767 -284.9609375 181.2265625 C-282.87292286 180.02259661 -282.87292286 180.02259661 -281 178 C-275.25012675 174.08689181 -269.24741229 170.53784384 -263.30102539 166.93359375 C-256.99613234 163.10936774 -250.79877119 159.25911312 -244.81640625 154.94140625 C-240.79085615 152.16651249 -236.64368053 149.59402108 -232.5 147 C-226.69648254 143.3651801 -220.97302331 139.68469956 -215.41113281 135.68554688 C-212.97600558 133.98322626 -210.49831263 132.38414659 -207.984375 130.80078125 C-201.8671659 126.92610761 -195.80586133 122.96966686 -189.75 119 C-187.44290653 117.48928053 -185.1354941 115.97904844 -182.828125 114.46875 C-182.25118896 114.0910144 -181.67425293 113.71327881 -181.07983398 113.32409668 C-175.55777238 109.7090826 -170.0294601 106.10368595 -164.5 102.5 C-158.45794169 98.5618633 -152.41781748 94.62081373 -146.3828125 90.671875 C-145.54719032 90.12510605 -145.54719032 90.12510605 -144.69468689 89.56729126 C-143.56772721 88.82987691 -142.440769 88.09246033 -141.31381226 87.3550415 C-133.7830273 82.42741861 -126.25028769 77.50341465 -118.6875 72.625 C-110.3527769 67.24809872 -102.06144455 61.80513733 -93.76742554 56.36578369 C-86.18807276 51.39533219 -78.60401755 46.43268199 -71 41.5 C-63.50937434 36.6401976 -56.0363767 31.75379978 -48.56903076 26.8583374 C-46.702023 25.63451978 -44.83470452 24.41117774 -42.96728516 23.18798828 C-37.57645007 19.65660401 -32.18636793 16.12414911 -26.80335999 12.58084106 C-24.16212388 10.8431991 -21.51827567 9.10953726 -18.875 7.375 C-17.91553467 6.74158691 -16.95606934 6.10817383 -15.9675293 5.45556641 C-14.64942261 4.5919751 -14.64942261 4.5919751 -13.3046875 3.7109375 C-12.54140137 3.20868652 -11.77811523 2.70643555 -10.99169922 2.18896484 C-7.30935585 -0.009247 -4.22082917 -0.35173576 0 0 Z M-356 481 C-356.556875 481.70125 -357.11375 482.4025 -357.6875 483.125 C-362.29249591 488.85013005 -368.74027303 492.79004551 -376 494 C-384.40120101 494.73252979 -391.15266155 493.62562924 -399.09765625 490.890625 C-402.63094413 489.80638592 -405.3492555 489.66039586 -409 490 C-409.20794918 492.79712143 -409.20794918 492.79712143 -408 496 C-401.12551332 502.51513851 -392.26927026 505.09015687 -383 505.375 C-372.37142638 505.04880337 -362.64984559 501.33139975 -354.8515625 493.97265625 C-350.77669727 489.58652346 -350.77669727 489.58652346 -349 484 C-350.10338257 482.14646548 -350.10338257 482.14646548 -352 481 C-353.32 481 -354.64 481 -356 481 Z " fill="#0D0E0E" transform="translate(746,142)"/>
<path d="M0 0 C7.56317544 8.15027125 9.40440998 18.17915576 10.3125 28.9375 C10.42078125 30.20013672 10.42078125 30.20013672 10.53125 31.48828125 C11.0867299 45.25955376 7.48217364 60.52224548 -1.9375 70.875 C-9.09116086 77.24769352 -16.04419199 79.7581068 -25.6328125 79.36328125 C-32.18012608 78.45067616 -36.79167562 75.24613049 -41.6875 70.9375 C-46.82223918 63.88509292 -50.05445708 56.47857367 -51.6875 47.9375 C-51.82929688 47.20144531 -51.97109375 46.46539063 -52.1171875 45.70703125 C-54.18015932 31.89518333 -51.36684333 17.19197713 -43.15234375 5.83984375 C-42.66894531 5.21207031 -42.18554688 4.58429688 -41.6875 3.9375 C-40.91599609 2.82568359 -40.91599609 2.82568359 -40.12890625 1.69140625 C-39.65324219 1.11261719 -39.17757813 0.53382813 -38.6875 -0.0625 C-38.0275 -0.0625 -37.3675 -0.0625 -36.6875 -0.0625 C-36.6875 -0.7225 -36.6875 -1.3825 -36.6875 -2.0625 C-24.12152433 -9.78444877 -11.31466021 -10.1905255 0 0 Z " fill="#0E0E0F" transform="translate(419.6875,490.0625)"/>
<path d="M0 0 C8.93851957 6.2916764 12.51659412 17.07503199 14.74609375 27.3671875 C16.51533408 41.99533951 16.17169742 58.71995116 8.125 71.5 C4.06551621 75.36146019 0.98576357 76.64290962 -4.5625 76.5625 C-5.37074219 76.55347656 -6.17898438 76.54445313 -7.01171875 76.53515625 C-7.62660156 76.52355469 -8.24148438 76.51195312 -8.875 76.5 C-8.61938677 74.1568787 -8.28229228 71.82156597 -7.875 69.5 C-7.215 69.17 -6.555 68.84 -5.875 68.5 C-4.99334107 66.39623062 -4.99334107 66.39623062 -4.3125 63.875 C-4.06371094 63.03710938 -3.81492187 62.19921875 -3.55859375 61.3359375 C-0.20802883 47.4358796 -0.63245521 30.59588636 -5.7890625 17.109375 C-6.86282015 15.16543425 -6.86282015 15.16543425 -9.875 14.5 C-13.1959932 14.93317303 -15.17448808 15.60130404 -17.26953125 18.2890625 C-21.78711621 26.01399631 -24.32729955 34.57082303 -24.875 43.5 C-24.92785156 44.29664063 -24.98070312 45.09328125 -25.03515625 45.9140625 C-25.41404461 57.08303233 -23.84725406 68.51005184 -16.875 77.5 C-14.9375 80.1875 -14.9375 80.1875 -13.875 82.5 C-14.68704413 85.67435434 -15.55680575 87.18180575 -17.875 89.5 C-21.38483509 90.13177032 -23.79296173 90.1188931 -26.9375 88.3203125 C-35.90502028 81.22102561 -39.04721042 70.20481872 -40.5 59.25 C-42.18085848 41.40233901 -39.95991891 22.18688341 -28.875 7.5 C-21.38901048 -0.42720697 -10.70718883 -5.40139437 0 0 Z " fill="#121212" transform="translate(317.875,474.5)"/>
<path d="M0 0 C9.17911313 7.63310787 17.49520901 16.19505628 25.95458984 24.60449219 C27.99234691 26.62880791 30.03717312 28.64556426 32.08837891 30.65625 C34.57786845 33.09659496 37.05501937 35.54882814 39.52362061 38.01029587 C40.91993116 39.39661932 42.32831552 40.77074748 43.73681641 42.14468384 C44.57519043 42.9859079 45.41356445 43.82713196 46.27734375 44.69384766 C47.02234131 45.43075836 47.76733887 46.16766907 48.53491211 46.9269104 C50 49 50 49 49.73266602 51.26913452 C49.49088623 51.84032013 49.24910645 52.41150574 49 53 C39 43 29 33 19 23 C18.4411763 22.4824263 17.8823526 21.9648526 17.30659485 21.43159485 C16 20 16 20 16 18 C15.34 18 14.68 18 14 18 C14 17.34 14 16.68 14 16 C13.12021484 15.62681641 13.12021484 15.62681641 12.22265625 15.24609375 C9.68943667 13.82588804 8.29014647 12.28816254 6.4375 10.0625 C3.98518936 7.13001189 3.98518936 7.13001189 1.28515625 4.43359375 C0 3 0 3 0 0 Z " fill="#212020" transform="translate(261,333)"/>
<path d="M0 0 C1.97723311 0.14492413 3.95859584 0.23583286 5.94018555 0.29711914 C7.77174446 0.3570681 7.77174446 0.3570681 9.64030457 0.41822815 C10.95912125 0.45681442 12.27793793 0.4954007 13.63671875 0.53515625 C15.00007858 0.5781746 16.36342589 0.62159121 17.72676086 0.66539001 C21.31215084 0.77950397 24.89768524 0.88820688 28.48327637 0.99578857 C32.14325026 1.10655868 35.80306195 1.22243881 39.46289062 1.33789062 C46.64177801 1.56359887 53.82082562 1.78359164 61 2 C61 2.33 61 2.66 61 3 C53.32197915 3.17136768 45.64376848 3.33058588 37.96533203 3.48217773 C35.36469086 3.53485665 32.76410021 3.59010601 30.16357422 3.64819336 C13.39499126 4.02061264 -3.25152285 3.9575505 -20 3 C-20 4.98 -20 6.96 -20 9 C-20.99 9.33 -21.98 9.66 -23 10 C-22.67 6.7 -22.34 3.4 -22 0 C-18.89612732 -0.19455325 -15.7921358 -0.38092924 -12.6875 -0.5625 C-11.36588867 -0.64661133 -11.36588867 -0.64661133 -10.01757812 -0.73242188 C-8.74624023 -0.80493164 -8.74624023 -0.80493164 -7.44921875 -0.87890625 C-6.27879028 -0.94960327 -6.27879028 -0.94960327 -5.0847168 -1.02172852 C-3 -1 -3 -1 0 0 Z " fill="#181819" transform="translate(463,527)"/>
<path d="M0 0 C0.33 0 0.66 0 1 0 C1.45437533 4.5437533 1.38294905 6.46180133 -1.3125 10.25 C-2.69864823 11.66838424 -4.08664276 13.08528896 -5.5 14.4765625 C-6.97395702 15.9735501 -8.33369764 17.5190568 -9.6875 19.125 C-23.48161765 35.32107843 -23.48161765 35.32107843 -29 39 C-24.48739351 29.4710542 -16.57975112 21.32374714 -9.01171875 14.12890625 C-8.51115967 13.64848877 -8.01060059 13.16807129 -7.49487305 12.6730957 C-6.07036538 11.31698674 -4.62931963 9.97831322 -3.1875 8.640625 C-0.72501133 5.66804939 -0.26678606 3.80170132 0 0 Z " fill="#2C2C2B" transform="translate(447,716)"/>
<path d="M0 0 C0.6875 3.3125 0.6875 3.3125 1 7 C-0.17504883 8.72583008 -0.17504883 8.72583008 -2 10 C-4.26831055 10.2487793 -4.26831055 10.2487793 -6.88671875 10.07421875 C-7.82451172 10.01943359 -8.76230469 9.96464844 -9.72851562 9.90820312 C-10.70498047 9.83537109 -11.68144531 9.76253906 -12.6875 9.6875 C-14.16959961 9.5956543 -14.16959961 9.5956543 -15.68164062 9.50195312 C-18.12236119 9.34867116 -20.56119089 9.18082846 -23 9 C-22 7 -22 7 -19 6 C-17.00179272 5.90564021 -15.00042797 5.87009699 -13 5.875 C-11.948125 5.87242187 -10.89625 5.86984375 -9.8125 5.8671875 C-7 6 -7 6 -4 7 C-3.01 6.67 -2.02 6.34 -1 6 C-1.71563266 3.9837767 -1.71563266 3.9837767 -3 2 C-6.16173552 0.88390915 -9.31082414 0.8075757 -12.640625 0.68359375 C-13.71054687 0.64169922 -14.78046875 0.59980469 -15.8828125 0.55664062 C-16.99398437 0.51732422 -18.10515625 0.47800781 -19.25 0.4375 C-20.93996094 0.37272461 -20.93996094 0.37272461 -22.6640625 0.30664062 C-25.44258954 0.20067985 -28.22120391 0.09860858 -31 0 C-31 -0.33 -31 -0.66 -31 -1 C-26.77159716 -1.22638576 -22.54236342 -1.42794972 -18.3125 -1.625 C-17.11431641 -1.68945312 -15.91613281 -1.75390625 -14.68164062 -1.8203125 C-13.52470703 -1.871875 -12.36777344 -1.9234375 -11.17578125 -1.9765625 C-10.11270752 -2.02893066 -9.04963379 -2.08129883 -7.9543457 -2.13525391 C-4.87079273 -1.99408472 -2.77240862 -1.31336415 0 0 Z " fill="#323231" transform="translate(548,522)"/>
<path d="M0 0 C0 0.33 0 0.66 0 1 C2.64 1.33 5.28 1.66 8 2 C8 2.33 8 2.66 8 3 C-3.87481596 3.14833219 -15.64822423 2.69401241 -27.5 2 C-29.20961225 1.90323562 -30.91924765 1.8068794 -32.62890625 1.7109375 C-36.752885 1.47864092 -40.87651523 1.24089967 -45 1 C-45 0.67 -45 0.34 -45 0 C-29.87526886 -1.00353666 -15.12140908 -1.0746179 0 0 Z " fill="#272827" transform="translate(504,518)"/>
<path d="M0 0 C1.32 0.33 2.64 0.66 4 1 C4 1.99 4 2.98 4 4 C3.34 4 2.68 4 2 4 C2 4.66 2 5.32 2 6 C1.34 6 0.68 6 0 6 C-0.98831156 12.53686384 -1.11883529 18.89577115 -1.0625 25.5 C-1.05798828 26.51320313 -1.05347656 27.52640625 -1.04882812 28.5703125 C-1.03714593 31.04693827 -1.02076582 33.52343657 -1 36 C-3.5178686 33.07229434 -4.38591723 31.26020127 -4.43359375 27.40234375 C-4.44455078 26.52280029 -4.45550781 25.64325684 -4.46679688 24.73706055 C-4.45712891 23.81320557 -4.44746094 22.88935059 -4.4375 21.9375 C-4.43427734 20.99753174 -4.43105469 20.05756348 -4.42773438 19.08911133 C-4.2885676 12.15176732 -3.25957296 6.21356095 0 0 Z " fill="#171717" transform="translate(310,591)"/>
<path d="M0 0 C4.63425158 4.63425158 4.10502033 14.76660602 4.25 21.125 C4.13585787 26.8321067 3.07628458 32.40716405 2 38 C-0.45777197 34.24105464 -0.25710815 30.50046454 -0.1953125 26.171875 C-0.1924826 25.42286926 -0.18965271 24.67386353 -0.18673706 23.90216064 C-0.1755726 21.51794224 -0.15047531 19.13410421 -0.125 16.75 C-0.11496535 15.13021377 -0.10584035 13.51042164 -0.09765625 11.890625 C-0.07564555 7.92693754 -0.04114175 3.96353319 0 0 Z " fill="#1A1A1B" transform="translate(426,503)"/>
<path d="M0 0 C0.66 0 1.32 0 2 0 C0.49698385 5.76309875 -2.48829323 10.09388555 -5.8125 14.9375 C-6.59463867 16.09668945 -6.59463867 16.09668945 -7.39257812 17.27929688 C-8.91557145 19.52861162 -10.45636293 21.76482158 -12 24 C-12.47228027 24.70141113 -12.94456055 25.40282227 -13.43115234 26.12548828 C-14.5697951 27.78644423 -15.77847487 29.39901331 -17 31 C-17.66 31 -18.32 31 -19 31 C-19.495 32.485 -19.495 32.485 -20 34 C-20.495 32.515 -20.495 32.515 -21 31 C-19.43177488 28.58874056 -17.83225084 26.38077112 -16.0625 24.125 C-10.8851044 17.32151498 -6.38186146 10.33604877 -2 3 C-1.34 2.01 -0.68 1.02 0 0 Z " fill="#1B1B1B" transform="translate(666,577)"/>
<path d="M0 0 C1.4281586 3.88187915 0.61112485 6.97499051 -0.21484375 10.953125 C-0.34943497 11.61334656 -0.48402618 12.27356812 -0.62269592 12.95379639 C-1.05284205 15.05430107 -1.494983 17.15207041 -1.9375 19.25 C-2.23191543 20.6769194 -2.52554425 22.10400134 -2.81835938 23.53125 C-3.53646775 27.02276298 -4.26535191 30.51192503 -5 34 C-5.33 34 -5.66 34 -6 34 C-7.44478345 26.76732649 -6.27646604 20.76458184 -4.6875 13.625 C-4.46126953 12.53316406 -4.23503906 11.44132812 -4.00195312 10.31640625 C-2.27258041 2.27258041 -2.27258041 2.27258041 0 0 Z " fill="#242423" transform="translate(731,245)"/>
<path d="M0 0 C2.24711309 3.57390683 2.16564667 6.35577322 1.9765625 10.515625 C1.89921875 12.39121094 1.89921875 12.39121094 1.8203125 14.3046875 C1.75585938 15.60664062 1.69140625 16.90859375 1.625 18.25 C1.56828125 19.56742188 1.5115625 20.88484375 1.453125 22.2421875 C1.31168341 25.49534406 1.16026986 28.74772552 1 32 C-4.23989813 21.86953028 -1.95772674 10.83741588 0 0 Z " fill="#202020" transform="translate(279,504)"/>
<path d="M0 0 C3.78733325 1.26244442 4.06365586 2.44541788 5.9375 5.875 C7.93650798 9.53185193 9.63836427 11.57497552 13 14 C13 14.66 13 15.32 13 16 C14.65 16 16.3 16 18 16 C18.33 14.68 18.66 13.36 19 12 C19.66 12 20.32 12 21 12 C21.33 10.68 21.66 9.36 22 8 C22.75 9.6875 22.75 9.6875 23 12 C21.5 14.75 21.5 14.75 19 17 C15.30843781 17.85189897 13.16198724 17.72108367 9.91015625 15.703125 C5.03555147 11.74534533 2.35494588 7.78924196 0 2 C0 1.34 0 0.68 0 0 Z " fill="#212121" transform="translate(281,547)"/>
<path d="M0 0 C1.45816996 3.92883776 0.5946112 7.14111975 -0.21484375 11.171875 C-0.34943497 11.8542926 -0.48402618 12.53671021 -0.62269592 13.23980713 C-1.05293895 15.41156183 -1.49503698 17.58070548 -1.9375 19.75 C-2.23190572 21.22510378 -2.52553449 22.70036285 -2.81835938 24.17578125 C-3.53657765 27.78569745 -4.2654447 31.39336828 -5 35 C-5.33 35 -5.66 35 -6 35 C-7.17574412 28.54829016 -6.62164324 23.53584434 -5.125 17.1875 C-4.84462891 15.9200293 -4.84462891 15.9200293 -4.55859375 14.62695312 C-3.42126256 9.54929366 -1.95813378 4.83006333 0 0 Z " fill="#212122" transform="translate(707,365)"/>
<path d="M0 0 C0.33 0 0.66 0 1 0 C0.87238281 0.68964844 0.74476563 1.37929688 0.61328125 2.08984375 C0.26940664 5.34548781 0.248503 7.7999441 1 11 C3.47458687 13.7849732 6.06392947 15.78798782 9.10546875 17.9296875 C12.0664256 20.04751089 14.49282906 22.36907474 17 25 C9.52373223 23.0002688 2.79170629 18.09943049 -2 12 C-3.13671658 8.404463 -3.172641 5.58814102 -2 2 C-1.34 1.34 -0.68 0.68 0 0 Z " fill="#1B1C1B" transform="translate(685,477)"/>
<path d="M0 0 C1.26199941 3.63639952 0.75413065 6.34530115 0.00390625 10.078125 C-0.33930664 11.81835938 -0.33930664 11.81835938 -0.68945312 13.59375 C-0.93630859 14.8003125 -1.18316406 16.006875 -1.4375 17.25 C-1.68048828 18.47203125 -1.92347656 19.6940625 -2.17382812 20.953125 C-2.7749192 23.97036646 -3.3839178 26.98579011 -4 30 C-4.33 30 -4.66 30 -5 30 C-6.20438406 23.41807947 -5.59668191 18.13112123 -4.1875 11.625 C-4.00896484 10.72394531 -3.83042969 9.82289063 -3.64648438 8.89453125 C-2.2711684 2.2711684 -2.2711684 2.2711684 0 0 Z " fill="#242424" transform="translate(719,305)"/>
<path d="M0 0 C1.84466442 0.14889747 3.69357275 0.2479101 5.54296875 0.31640625 C7.15268555 0.37924805 7.15268555 0.37924805 8.79492188 0.44335938 C9.91447266 0.48267578 11.03402344 0.52199219 12.1875 0.5625 C13.31865234 0.60568359 14.44980469 0.64886719 15.61523438 0.69335938 C18.41003354 0.79949099 21.20492162 0.90154385 24 1 C24 1.33 24 1.66 24 2 C19.84147507 2.02515393 15.68299316 2.04306897 11.52441406 2.05493164 C10.11652859 2.05988898 8.70864806 2.06665686 7.30078125 2.07543945 C-2.18916799 2.133057 -11.53817205 1.82393888 -21 1 C-21.33 3.97 -21.66 6.94 -22 10 C-22.33 10 -22.66 10 -23 10 C-22.67 6.7 -22.34 3.4 -22 0 C-18.89612732 -0.19455325 -15.7921358 -0.38092924 -12.6875 -0.5625 C-11.36588867 -0.64661133 -11.36588867 -0.64661133 -10.01757812 -0.73242188 C-8.74624023 -0.80493164 -8.74624023 -0.80493164 -7.44921875 -0.87890625 C-6.27879028 -0.94960327 -6.27879028 -0.94960327 -5.0847168 -1.02172852 C-3 -1 -3 -1 0 0 Z " fill="#4C4D4D" transform="translate(463,527)"/>
<path d="M0 0 C7.55906449 5.3281658 14.46370027 11.46370027 21 18 C16.8812577 17.46150719 14.58047756 16.23564667 11.375 13.625 C10.61960937 13.01914062 9.86421875 12.41328125 9.0859375 11.7890625 C5.51165541 8.72347973 5.51165541 8.72347973 4 7 C4 6.34 4 5.68 4 5 C2.68 4.34 1.36 3.68 0 3 C0 2.01 0 1.02 0 0 Z " fill="#212121" transform="translate(731,526)"/>
<path d="M0 0 C6.42756699 2.02009248 10.03335558 6.40683923 13.15234375 12.15234375 C14.47372846 15.03259705 15.24686832 17.92471232 16 21 C13 20 13 20 11.640625 17.48828125 C11.18171875 16.44027344 10.7228125 15.39226562 10.25 14.3125 C7.57208173 8.65388375 4.93131212 5.74779721 0 2 C0 1.34 0 0.68 0 0 Z " fill="#1F1E1E" transform="translate(314,474)"/>
<path d="M0 0 C1.23322843 3.58348444 0.7721117 6.18697824 0.00390625 9.859375 C-0.33930664 11.53193359 -0.33930664 11.53193359 -0.68945312 13.23828125 C-0.93630859 14.39714844 -1.18316406 15.55601562 -1.4375 16.75 C-1.68048828 17.92433594 -1.92347656 19.09867187 -2.17382812 20.30859375 C-2.77480798 23.20743777 -3.38380502 26.1043588 -4 29 C-4.33 29 -4.66 29 -5 29 C-6.35847878 22.77150295 -5.43497833 17.73198997 -4.0625 11.5625 C-3.86720703 10.64017578 -3.67191406 9.71785156 -3.47070312 8.76757812 C-2.99095297 6.50924201 -2.50052665 4.25380549 -2 2 C-1.34 2 -0.68 2 0 2 C0 1.34 0 0.68 0 0 Z " fill="#262626" transform="translate(713,335)"/>
<path d="M0 0 C5.05485927 0.73094706 9.59903179 2.68380904 14.3125 4.5625 C15.56643555 5.0565332 15.56643555 5.0565332 16.84570312 5.56054688 C18.89863546 6.36998877 20.94997286 7.18323457 23 8 C20.74636692 9.40149098 19.57315165 10.1008688 16.90942383 9.63208008 C16.18263428 9.34743896 15.45584473 9.06279785 14.70703125 8.76953125 C13.91232422 8.46080078 13.11761719 8.15207031 12.29882812 7.83398438 C11.0680957 7.32834961 11.0680957 7.32834961 9.8125 6.8125 C8.98041016 6.49474609 8.14832031 6.17699219 7.29101562 5.84960938 C2.73274854 4.03298949 2.73274854 4.03298949 1 3 C0.67 2.01 0.34 1.02 0 0 Z " fill="#1F1F1E" transform="translate(363,335)"/>
<path d="M0 0 C6.68148263 4.47859599 11.79295818 9.9010112 17 16 C16.67 16.66 16.34 17.32 16 18 C11.2987472 15.24804714 8.1010775 12.07968133 4.61328125 7.90234375 C3.05782524 5.9864827 3.05782524 5.9864827 1.29296875 4.44140625 C0 3 0 3 0 0 Z " fill="#222221" transform="translate(635,700)"/>
<path d="M0 0 C0.99 0 1.98 0 3 0 C1.80641725 4.92352884 -1.22682644 7.18004951 -4.95703125 10.28515625 C-7.46491532 12.39024441 -9.72219579 14.6510144 -12 17 C-9.91219632 12.5360769 -6.99342356 8.886064 -4 5 C-2.9171875 3.515 -2.9171875 3.515 -1.8125 2 C-1.214375 1.34 -0.61625 0.68 0 0 Z " fill="#181817" transform="translate(430,738)"/>
<path d="M0 0 C0.3403125 0.8353125 0.3403125 0.8353125 0.6875 1.6875 C4.2885342 8.03217931 9.4794104 10.45711212 16 13 C14.38671875 14.1953125 14.38671875 14.1953125 12 15 C9.01953125 13.8046875 9.01953125 13.8046875 5.8125 11.875 C4.74644531 11.25367188 3.68039062 10.63234375 2.58203125 9.9921875 C0 8 0 8 -0.890625 5.8984375 C-1.01519429 3.73627056 -0.66043534 2.05468773 0 0 Z " fill="#252625" transform="translate(336,632)"/>
<path d="M0 0 C1.32 0.66 2.64 1.32 4 2 C0.87694627 3.17192435 -2.24874739 4.33663876 -5.375 5.5 C-6.26445313 5.83386719 -7.15390625 6.16773438 -8.0703125 6.51171875 C-8.92109375 6.82753906 -9.771875 7.14335938 -10.6484375 7.46875 C-11.43395996 7.76201172 -12.21948242 8.05527344 -13.02880859 8.35742188 C-15 9 -15 9 -17 9 C-16 6 -16 6 -13.92578125 4.83203125 C-9.14916064 2.96850662 -5.22554056 1.4499431 0 2 C0 1.34 0 0.68 0 0 Z " fill="#202020" transform="translate(555,791)"/>
<path d="M0 0 C0 3 0 3 -1.828125 4.97265625 C-2.62734375 5.66230469 -3.4265625 6.35195313 -4.25 7.0625 C-5.03890625 7.75472656 -5.8278125 8.44695313 -6.640625 9.16015625 C-9.88012524 11.68632283 -11.85523985 13 -16 13 C-15 10 -15 10 -13.3984375 9.04296875 C-12.73070312 8.76066406 -12.06296875 8.47835937 -11.375 8.1875 C-6.92408688 6.12272622 -3.56051828 3.33798589 0 0 Z " fill="#1A1A1A" transform="translate(420,555)"/>
<path d="M0 0 C0.66 0.33 1.32 0.66 2 1 C-1.72222642 5.07118515 -5.84842971 8.84924501 -11 11 C-12.32 10.67 -13.64 10.34 -15 10 C-10.05 6.7 -5.1 3.4 0 0 Z " fill="#1D1D1D" transform="translate(450,330)"/>
<path d="M0 0 C3.82246588 0.55959523 5.58971741 2.21317357 8.25 4.9375 C8.95640625 5.64777344 9.6628125 6.35804688 10.390625 7.08984375 C12 9 12 9 12 11 C12.66 11 13.32 11 14 11 C13.67 12.32 13.34 13.64 13 15 C10.82933435 12.6912253 8.66415316 10.37737901 6.5 8.0625 C5.87996094 7.40314453 5.25992188 6.74378906 4.62109375 6.06445312 C4.03457031 5.43603516 3.44804687 4.80761719 2.84375 4.16015625 C2.02680664 3.28822632 2.02680664 3.28822632 1.19335938 2.39868164 C0 1 0 1 0 0 Z " fill="#1F1E1F" transform="translate(242,315)"/>
<path d="M0 0 C8.07390158 0.76894301 12.64877665 5.39395649 18 11 C17.67 11.66 17.34 12.32 17 13 C15.32756598 11.71580959 13.66218553 10.42242815 12 9.125 C11.071875 8.40570313 10.14375 7.68640625 9.1875 6.9453125 C8.465625 6.30335938 7.74375 5.66140625 7 5 C7 4.34 7 3.68 7 3 C5.02 3 3.04 3 1 3 C0.67 2.01 0.34 1.02 0 0 Z " fill="#262626" transform="translate(405,483)"/>
<path d="M0 0 C0 0.66 0 1.32 0 2 C0.66 2.33 1.32 2.66 2 3 C1.29875 2.86722656 0.5975 2.73445312 -0.125 2.59765625 C-5.7404558 1.55238798 -11.32433509 0.6425281 -17 0 C-17 -0.66 -17 -1.32 -17 -2 C-12.19847791 -4.40076104 -5.00665771 -1.3175415 0 0 Z " fill="#2B2A2A" transform="translate(713,564)"/>
<path d="M0 0 C0.66 0.66 1.32 1.32 2 2 C1.56493802 8.09086767 0.25960616 14.03215721 -1 20 C-1.33 20 -1.66 20 -2 20 C-3.13879395 15.09790683 -2.71241384 11.50063468 -1.5625 6.625 C-1.13130859 4.75714844 -1.13130859 4.75714844 -0.69140625 2.8515625 C-0.46324219 1.91054688 -0.23507812 0.96953125 0 0 Z " fill="#201F1F" transform="translate(698,404)"/>
<path d="M0 0 C1.56454159 4.02014661 0.46223974 7.69925681 -0.4375 11.75 C-0.58509766 12.44738281 -0.73269531 13.14476562 -0.88476562 13.86328125 C-1.24868033 15.5772021 -1.62329068 17.28884581 -2 19 C-2.33 19 -2.66 19 -3 19 C-4.37709097 12.80309066 -3.80382599 7.09714283 -2 1 C-1.34 0.67 -0.68 0.34 0 0 Z " fill="#252525" transform="translate(742,190)"/>
<path d="M0 0 C4.17443363 3.50074982 8.3145494 6.97950843 12 11 C12 11.66 12 12.32 12 13 C9 13 9 13 7.24609375 11.28515625 C6.35083984 10.18494141 6.35083984 10.18494141 5.4375 9.0625 C3.08714476 6.07351045 3.08714476 6.07351045 0 4 C0 2.68 0 1.36 0 0 Z " fill="#212021" transform="translate(763,554)"/>
<path d="M0 0 C4.875 4.625 4.875 4.625 6 8 C7.2375 8.495 7.2375 8.495 8.5 9 C9.325 9.33 10.15 9.66 11 10 C11.33 10.99 11.66 11.98 12 13 C6.71181939 11.18690951 3.11407709 8.67111564 0 4 C0 2.68 0 1.36 0 0 Z " fill="#1D1D1D" transform="translate(376,554)"/>
<path d="M0 0 C2.8342324 0.08335978 4.55701545 0.61391255 6.703125 2.484375 C9.86870106 5.94579928 9.86870106 5.94579928 11 8 C10.6640625 10.23046875 10.6640625 10.23046875 10 12 C8.51814875 10.37744772 7.03959744 8.75188112 5.5625 7.125 C4.73878906 6.22007812 3.91507812 5.31515625 3.06640625 4.3828125 C1 2 1 2 0 0 Z " fill="#222222" transform="translate(422,479)"/>
<path d="M0 0 C0.99 0.33 1.98 0.66 3 1 C-2.93617021 5.94680851 -2.93617021 5.94680851 -6 7 C-8.75 6.625 -8.75 6.625 -11 6 C-10.67 5.01 -10.34 4.02 -10 3 C-8.906875 2.87625 -7.81375 2.7525 -6.6875 2.625 C-2.92618198 2.24535199 -2.92618198 2.24535199 0 0 Z " fill="#242324" transform="translate(388,877)"/>
<path d="M0 0 C-3.01505452 2.01003635 -5.57496212 2.99171541 -9 4.125 C-10.051875 4.47820313 -11.10375 4.83140625 -12.1875 5.1953125 C-15 6 -15 6 -18 6 C-18 5.34 -18 4.68 -18 4 C-16.73392393 3.46770674 -15.46189588 2.94955456 -14.1875 2.4375 C-13.47980469 2.14746094 -12.77210938 1.85742188 -12.04296875 1.55859375 C-10 1 -10 1 -7 2 C-7 1.34 -7 0.68 -7 0 C-4.3333581 -1.33332095 -2.83319697 -0.67102033 0 0 Z " fill="#262625" transform="translate(577,786)"/>
<path d="M0 0 C0.67578125 1.734375 0.67578125 1.734375 1 4 C-0.14453125 6.140625 -0.14453125 6.140625 -1.8125 8.25 C-2.35519531 8.95640625 -2.89789062 9.6628125 -3.45703125 10.390625 C-3.96621094 10.92171875 -4.47539063 11.4528125 -5 12 C-5.66 12 -6.32 12 -7 12 C-7.33 12.99 -7.66 13.98 -8 15 C-8.33 14.01 -8.66 13.02 -9 12 C-7.59166619 9.8037049 -6.18346343 7.83930111 -4.5625 5.8125 C-4.12873047 5.25369141 -3.69496094 4.69488281 -3.24804688 4.11914062 C-2.17453547 2.73891168 -1.0884306 1.36849461 0 0 Z " fill="#212121" transform="translate(654,596)"/>
<path d="M0 0 C3.50989295 0.64998018 5.97242212 2.15391593 9 4 C9.9075 4.33 10.815 4.66 11.75 5 C12.86375 5.495 12.86375 5.495 14 6 C14.33 6.99 14.66 7.98 15 9 C8.87220249 7.32506868 4.57774144 5.46036345 0 1 C0 0.67 0 0.34 0 0 Z " fill="#232222" transform="translate(313,579)"/>
<path d="M0 0 C0.33 0 0.66 0 1 0 C1.19335938 1.01320313 1.38671875 2.02640625 1.5859375 3.0703125 C1.84874923 4.42191568 2.11178183 5.77347592 2.375 7.125 C2.50132812 7.79015625 2.62765625 8.4553125 2.7578125 9.140625 C3.5574274 13.218661 4.59869485 17.08853085 6 21 C3 20 3 20 1.8125 17.8125 C0.92665021 14.74609689 0.85229682 12.17561845 1 9 C0.34 9 -0.32 9 -1 9 C-0.67 6.03 -0.34 3.06 0 0 Z " fill="#2C2C2C" transform="translate(292,529)"/>
<path d="M0 0 C0.81210937 0.56847656 0.81210937 0.56847656 1.640625 1.1484375 C-0.29405442 1.98829834 -2.23222629 2.82011777 -4.171875 3.6484375 C-5.79029297 4.34453125 -5.79029297 4.34453125 -7.44140625 5.0546875 C-10.359375 6.1484375 -10.359375 6.1484375 -13.359375 6.1484375 C-13.359375 5.4884375 -13.359375 4.8284375 -13.359375 4.1484375 C-11.61908198 3.25428695 -9.8666735 2.38368572 -8.109375 1.5234375 C-7.13484375 1.03617188 -6.1603125 0.54890625 -5.15625 0.046875 C-2.359375 -0.8515625 -2.359375 -0.8515625 0 0 Z " fill="#212120" transform="translate(594.359375,650.8515625)"/>
<path d="M0 0 C-9.42857143 8 -9.42857143 8 -14 8 C-12.74539271 4.23617813 -11.47381388 3.74958162 -8.125 1.75 C-7.24070312 1.20859375 -6.35640625 0.6671875 -5.4453125 0.109375 C-3 -1 -3 -1 0 0 Z " fill="#201F1F" transform="translate(435,851)"/>
<path d="M0 0 C1.8515625 0.1953125 1.8515625 0.1953125 4 1 C5.3359375 3.1796875 5.3359375 3.1796875 6.375 5.875 C6.73335938 6.75929688 7.09171875 7.64359375 7.4609375 8.5546875 C7.63882812 9.36164063 7.81671875 10.16859375 8 11 C7.01 12.485 7.01 12.485 6 14 C5.18563132 12.23002526 4.3735706 10.45898848 3.5625 8.6875 C3.11003906 7.70136719 2.65757812 6.71523438 2.19140625 5.69921875 C1 3 1 3 0 0 Z " fill="#1F1F1F" transform="translate(433,492)"/>
<path d="M0 0 C6.5705166 -0.24794402 12.56971459 0.67611771 19 2 C19 2.33 19 2.66 19 3 C16.69 3.33 14.38 3.66 12 4 C12 3.34 12 2.68 12 2 C8.37 2.33 4.74 2.66 1 3 C0.67 2.01 0.34 1.02 0 0 Z " fill="#343434" transform="translate(241,298)"/>
<path d="M0 0 C0.33 1.32 0.66 2.64 1 4 C7.93 4.495 7.93 4.495 15 5 C15 5.33 15 5.66 15 6 C12.7089095 6.19441368 10.41709663 6.38033135 8.125 6.5625 C6.21074219 6.71912109 6.21074219 6.71912109 4.2578125 6.87890625 C1 7 1 7 -1 6 C-0.67 4.02 -0.34 2.04 0 0 Z " fill="#302F2F" transform="translate(578,675)"/>
<path d="M0 0 C0.66 0.66 1.32 1.32 2 2 C1.8125 4.5 1.8125 4.5 1 7 C-2.42094242 9.28062828 -3.68187222 9.21925007 -7.6875 9.125 C-9.17830078 9.09792969 -9.17830078 9.09792969 -10.69921875 9.0703125 C-11.45847656 9.04710937 -12.21773437 9.02390625 -13 9 C-13 8.67 -13 8.34 -13 8 C-9.7 8 -6.4 8 -3 8 C-2.690625 7.05125 -2.38125 6.1025 -2.0625 5.125 C-1 2 -1 2 0 0 Z " fill="#393839" transform="translate(775,567)"/>
<path d="M0 0 C0.66 0.33 1.32 0.66 2 1 C1.401875 1.2475 0.80375 1.495 0.1875 1.75 C-2.28777159 3.16444091 -3.33430804 4.72860188 -5 7 C-5.66 7 -6.32 7 -7 7 C-7 9.97 -7 12.94 -7 16 C-9.1987704 11.60245919 -9.39493426 10.55678524 -8 6 C-5.41462749 2.93837466 -3.81557502 1.27185834 0 0 Z " fill="#363636" transform="translate(318,558)"/>
<path d="M0 0 C1.65804926 2.4870739 3.19874478 4.97317502 4.6875 7.5625 C5.14511719 8.34753906 5.60273438 9.13257813 6.07421875 9.94140625 C6.37972656 10.62074219 6.68523437 11.30007813 7 12 C6.67 12.66 6.34 13.32 6 14 C5.34 14 4.68 14 4 14 C3.12808053 12.61518672 2.27809616 11.21654754 1.4375 9.8125 C0.96183594 9.03519531 0.48617188 8.25789062 -0.00390625 7.45703125 C-1.19605797 4.51639033 -0.88855164 2.99553637 0 0 Z " fill="#222221" transform="translate(361,548)"/>
<path d="M0 0 C0.33 0 0.66 0 1 0 C1 1.65 1 3.3 1 5 C1.66 5 2.32 5 3 5 C3.33 5.66 3.66 6.32 4 7 C7.0399648 7.69337792 7.0399648 7.69337792 10.5625 8.125 C12.35880859 8.37636719 12.35880859 8.37636719 14.19140625 8.6328125 C15.11824219 8.75398437 16.04507812 8.87515625 17 9 C17 9.33 17 9.66 17 10 C14.35319096 9.88660796 11.70822482 9.75987127 9.0625 9.625 C8.30775391 9.5940625 7.55300781 9.563125 6.77539062 9.53125 C4.84492605 9.4273685 2.92057919 9.22104386 1 9 C-0.4783226 6.04335481 -0.06032783 3.25770263 0 0 Z " fill="#353433" transform="translate(342,506)"/>
<path d="M0 0 C1.32 0 2.64 0 4 0 C4.33 0.99 4.66 1.98 5 3 C4.278125 3.061875 3.55625 3.12375 2.8125 3.1875 C-0.84657625 4.24456647 -2.49211602 6.20550071 -5 9 C-4.42558597 5.12270528 -2.70745361 2.78480942 0 0 Z " fill="#232323" transform="translate(390,620)"/>
<path d="M0 0 C0.66 0.33 1.32 0.66 2 1 C1.39254603 5.85963179 -0.72758967 9.7405518 -3 14 C-3.66 13.01 -4.32 12.02 -5 11 C-4.1015625 8.30078125 -4.1015625 8.30078125 -2.625 5.3125 C-2.14289063 4.31863281 -1.66078125 3.32476563 -1.1640625 2.30078125 C-0.77992188 1.54152344 -0.39578125 0.78226563 0 0 Z " fill="#1C1D1C" transform="translate(425,541)"/>
<path d="M0 0 C0.66 1.32 1.32 2.64 2 4 C0.875 5.5 0.875 5.5 -1 7 C-4.1875 7.1875 -4.1875 7.1875 -7 7 C-7 7.66 -7 8.32 -7 9 C-8.32 8.34 -9.64 7.68 -11 7 C-10.37351562 6.74605469 -9.74703125 6.49210937 -9.1015625 6.23046875 C-8.28429687 5.88628906 -7.46703125 5.54210937 -6.625 5.1875 C-5.81289063 4.85105469 -5.00078125 4.51460938 -4.1640625 4.16796875 C-1.69852542 3.05560918 -1.69852542 3.05560918 0 0 Z " fill="#272727" transform="translate(314,389)"/>
<path d="M0 0 C1.4049404 3.89060419 0.69513239 7.23092362 0.0625 11.25 C-0.13214844 12.51328125 -0.32679688 13.7765625 -0.52734375 15.078125 C-0.68332031 16.04234375 -0.83929687 17.0065625 -1 18 C-1.33 18 -1.66 18 -2 18 C-2.16788373 16.37512529 -2.33426787 14.75009558 -2.5 13.125 C-2.5928125 12.22007812 -2.685625 11.31515625 -2.78125 10.3828125 C-3.0648185 7.29394129 -2.9266883 4.96540255 -2 2 C-1.34 1.34 -0.68 0.68 0 0 Z " fill="#2D2C2C" transform="translate(747,160)"/>
<path d="M0 0 C-3.90869534 3.15702316 -7.8614939 6 -13 6 C-12 3 -12 3 -8.75 1.3125 C-5.45873369 0.16055679 -3.4127883 -0.31025348 0 0 Z " fill="#282828" transform="translate(507,813)"/>
<path d="M0 0 C3.79235994 1.48985569 5.80565887 3.58658047 8 7 C7.60546875 9.1640625 7.60546875 9.1640625 7 11 C5.82439821 9.73742767 4.65977135 8.46462916 3.5 7.1875 C2.8503125 6.47980469 2.200625 5.77210938 1.53125 5.04296875 C0 3 0 3 0 0 Z " fill="#222222" transform="translate(326,469)"/>
<path d="M0 0 C0.66 0 1.32 0 2 0 C2.33 2.31 2.66 4.62 3 7 C1.0373772 9.04795423 -0.4277307 9.94976638 -3.26953125 10.19921875 C-5.51954383 10.18858877 -7.75385562 10.12958525 -10 10 C-10 9.01 -10 8.02 -10 7 C-6.7 7 -3.4 7 0 7 C0 4.69 0 2.38 0 0 Z " fill="#353535" transform="translate(328,588)"/>
<path d="M0 0 C1.29608947 0.93137592 2.58671632 1.8703566 3.875 2.8125 C4.59429688 3.33457031 5.31359375 3.85664063 6.0546875 4.39453125 C8 6 8 6 10 9 C6.39755548 8.69121904 5.00654002 8.00552268 2.1875 5.625 C0 3 0 3 0 0 Z " fill="#242424" transform="translate(705,504)"/>
<path d="M0 0 C-3.18595135 2.63978826 -6.30970546 5.10498388 -10 7 C-10.66 6.67 -11.32 6.34 -12 6 C-4.89473684 -1.63157895 -4.89473684 -1.63157895 0 0 Z " fill="#262626" transform="translate(452,841)"/>
<path d="M0 0 C2.37948772 0.17625835 3.70225849 0.69719773 5.37890625 2.40234375 C6.62115486 3.90649092 7.81376056 5.45129851 9 7 C8.34 7.66 7.68 8.32 7 9 C5.83037314 7.69013727 4.66437056 6.3770374 3.5 5.0625 C2.8503125 4.33160156 2.200625 3.60070312 1.53125 2.84765625 C0 1 0 1 0 0 Z " fill="#232323" transform="translate(323,664)"/>
<path d="M0 0 C1.4391134 0.28359887 2.87625518 0.57721399 4.3125 0.875 C5.11300781 1.03742188 5.91351563 1.19984375 6.73828125 1.3671875 C9 2 9 2 12 4 C7.06729471 5.6442351 4.45975807 4.18615592 0 2 C0 1.34 0 0.68 0 0 Z " fill="#252525" transform="translate(302,313)"/>
<path d="M0 0 C2.31 0.33 4.62 0.66 7 1 C7 1.33 7 1.66 7 2 C5.10507994 2.33848652 3.20901534 2.67056911 1.3125 3 C0.25675781 3.185625 -0.79898438 3.37125 -1.88671875 3.5625 C-4.64904062 3.95068074 -7.21742043 4.08259976 -10 4 C-8.375 2.4375 -8.375 2.4375 -6 1 C-2.75 1.3125 -2.75 1.3125 0 2 C0 1.34 0 0.68 0 0 Z " fill="#363635" transform="translate(646,767)"/>
<path d="M0 0 C0.33 0.99 0.66 1.98 1 3 C-2.3 5.64 -5.6 8.28 -9 11 C-9.66 10.34 -10.32 9.68 -11 9 C-10.45730469 8.60167969 -9.91460937 8.20335937 -9.35546875 7.79296875 C-8.64003906 7.26316406 -7.92460937 6.73335937 -7.1875 6.1875 C-6.47980469 5.66542969 -5.77210938 5.14335938 -5.04296875 4.60546875 C-3.21468607 3.16871123 -1.60103312 1.68184237 0 0 Z " fill="#202120" transform="translate(394,632)"/>
<path d="M0 0 C3.8063457 0.67170806 7.35206816 1.72746564 11 3 C10.34 3.66 9.68 4.32 9 5 C5.19090105 4.67582137 3.21627837 4.14418558 0 2 C0 1.34 0 0.68 0 0 Z " fill="#242322" transform="translate(347,329)"/>
<path d="M0 0 C0.66 0.33 1.32 0.66 2 1 C-1.49087093 5.0042343 -3.64951939 6.62671065 -9 7 C-6.25604436 4.05278838 -3.61662784 1.80831392 0 0 Z " fill="#201F1F" transform="translate(639,207)"/>
<path d="M0 0 C0.66 0.33 1.32 0.66 2 1 C2.25 3.75 2.25 3.75 2 7 C0 9.375 0 9.375 -2 11 C-1 3.57142857 -1 3.57142857 0 0 Z " fill="#171616" transform="translate(397,623)"/>
<path d="M0 0 C3.22834569 2.15223046 3.46380996 2.47566883 4.3125 6 C4.49425781 6.70125 4.67601562 7.4025 4.86328125 8.125 C4.93095703 9.053125 4.93095703 9.053125 5 10 C4.34 10.66 3.68 11.32 3 12 C2.49166409 10.75336669 1.99368855 9.50250613 1.5 8.25 C1.2215625 7.55390625 0.943125 6.8578125 0.65625 6.140625 C0 4 0 4 0 0 Z " fill="#222222" transform="translate(369,539)"/>
<path d="M0 0 C3.125 0.5 3.125 0.5 5.5 3.5 C6.03625 4.49 6.5725 5.48 7.125 6.5 C6.135 6.83 5.145 7.16 4.125 7.5 C3.8465625 6.5409375 3.8465625 6.5409375 3.5625 5.5625 C2.18253944 3.07873787 2.18253944 3.07873787 -1.5 2.75 C-2.61375 2.6675 -3.7275 2.585 -4.875 2.5 C-2.875 0.5 -2.875 0.5 0 0 Z " fill="#343334" transform="translate(308.875,486.5)"/>
<path d="M0 0 C-0.62648438 0.10957031 -1.25296875 0.21914063 -1.8984375 0.33203125 C-2.71570313 0.49058594 -3.53296875 0.64914062 -4.375 0.8125 C-5.59316406 1.03873047 -5.59316406 1.03873047 -6.8359375 1.26953125 C-9.35820641 1.87544942 -9.35820641 1.87544942 -11 5 C-12.32 4.34 -13.64 3.68 -15 3 C-10.60305954 -1.04518522 -5.6174745 -1.62611104 0 0 Z " fill="#2D2D2C" transform="translate(403,483)"/>
<path d="M0 0 C2.3125 0.1875 2.3125 0.1875 4 1 C2.8553125 1.8971875 2.8553125 1.8971875 1.6875 2.8125 C-0.3483575 4.46959332 -2.1978279 6.10297674 -4 8 C-4.33 7.01 -4.66 6.02 -5 5 C-2.75 2.4375 -2.75 2.4375 0 0 Z " fill="#232323" transform="translate(376,479)"/>
<path d="M0 0 C0.66 0.33 1.32 0.66 2 1 C1.34 2.98 0.68 4.96 0 7 C0.639375 7.268125 1.27875 7.53625 1.9375 7.8125 C4 9 4 9 5 12 C1.66644643 10.62059852 -0.36343728 9.27312543 -2 6 C-1.1875 2.75 -1.1875 2.75 0 0 Z " fill="#313030" transform="translate(281,404)"/>
<path d="M0 0 C0.33 0 0.66 0 1 0 C1.09688221 5.44693314 1.12862175 10.63904667 0 16 C-0.33 16 -0.66 16 -1 16 C-2.08360869 9.93179132 -1.79074734 5.89893243 0 0 Z " fill="#1F1F1F" transform="translate(702,384)"/>
<path d="M0 0 C0 0.66 0 1.32 0 2 C0.99 2.33 1.98 2.66 3 3 C-1.29 2.67 -5.58 2.34 -10 2 C-7.85732894 -2.28534211 -3.95706306 -0.79141261 0 0 Z " fill="#333332" transform="translate(386,700)"/>
<path d="M0 0 C1.32 0.33 2.64 0.66 4 1 C2.3811004 2.03048037 0.75467511 3.04914678 -0.875 4.0625 C-1.77992188 4.63097656 -2.68484375 5.19945312 -3.6171875 5.78515625 C-4.40351562 6.18605469 -5.18984375 6.58695313 -6 7 C-6.66 6.67 -7.32 6.34 -8 6 C-6.25 4 -6.25 4 -4 2 C-2.68 2 -1.36 2 0 2 C0 1.34 0 0.68 0 0 Z " fill="#2C2C2C" transform="translate(604,644)"/>
<path d="M0 0 C0.66 0.33 1.32 0.66 2 1 C1.5206753 5.31392226 0.2542015 7.16569547 -3 10 C-3.33 9.34 -3.66 8.68 -4 8 C-3.22265625 6.0546875 -3.22265625 6.0546875 -2.0625 3.875 C-1.49208984 2.78832031 -1.49208984 2.78832031 -0.91015625 1.6796875 C-0.60980469 1.12539063 -0.30945313 0.57109375 0 0 Z " fill="#202121" transform="translate(436,548)"/>
<path d="M0 0 C1.45606519 4.52092968 0.27032841 7.51648796 -1 12 C-2.80411967 9.24075815 -3.0127245 8.11027897 -2.625 4.75 C-2.41875 3.8425 -2.2125 2.935 -2 2 C-1.34 2 -0.68 2 0 2 C0 1.34 0 0.68 0 0 Z " fill="#262525" transform="translate(331,526)"/>
<path d="M0 0 C1.32940404 3.98821211 0.43803613 6.11730245 -1 10 C-1.99 10.33 -2.98 10.66 -4 11 C-3.39301257 6.87248551 -1.96189209 3.6678852 0 0 Z " fill="#242424" transform="translate(374,500)"/>
<path d="M0 0 C0.66 0 1.32 0 2 0 C0.41037341 4.03520597 -1.28232318 8.01811282 -3 12 C-3.33 12 -3.66 12 -4 12 C-4.25 6.375 -4.25 6.375 -2 3 C-1.34 3 -0.68 3 0 3 C0 2.01 0 1.02 0 0 Z " fill="#272727" transform="translate(366,492)"/>
<path d="M0 0 C0.66 0.33 1.32 0.66 2 1 C-0.66666667 3.66666667 -3.33333333 6.33333333 -6 9 C-6.66 8.67 -7.32 8.34 -8 8 C-6.625 6 -6.625 6 -5 4 C-4.34 4 -3.68 4 -3 4 C-3 3.34 -3 2.68 -3 2 C-2.01 1.34 -1.02 0.68 0 0 Z " fill="#232322" transform="translate(386,486)"/>
<path d="M0 0 C0.33 0 0.66 0 1 0 C1.18451025 10.55808656 1.18451025 10.55808656 0 15 C-0.33 15 -0.66 15 -1 15 C-2.18609365 9.3067505 -1.66251802 5.57432514 0 0 Z " fill="#1D1D1D" transform="translate(709,349)"/>
<path d="M0 0 C0.66 0.33 1.32 0.66 2 1 C0.93106782 2.03590338 -0.15578488 3.05333942 -1.25 4.0625 C-2.15492188 4.91521484 -2.15492188 4.91521484 -3.078125 5.78515625 C-4.02945312 6.38650391 -4.02945312 6.38650391 -5 7 C-6.32 6.67 -7.64 6.34 -9 6 C-6.03 4.02 -3.06 2.04 0 0 Z " fill="#222222" transform="translate(492,303)"/>
<path d="M0 0 C0.33 0 0.66 0 1 0 C2.38766322 6.05525768 1.49118146 9.32010626 -1 15 C-1.33 15 -1.66 15 -2 15 C-1.03644647 4.44191344 -1.03644647 4.44191344 0 0 Z " fill="#313131" transform="translate(378,848)"/>
<path d="M0 0 C-2.6860286 1.79068573 -4.6626589 2.66055791 -7.6875 3.625 C-8.49574219 3.88539063 -9.30398438 4.14578125 -10.13671875 4.4140625 C-10.75160156 4.60742188 -11.36648438 4.80078125 -12 5 C-11 2 -11 2 -8.8125 0.8125 C-5.74609689 -0.07334979 -3.17561845 -0.14770318 0 0 Z " fill="#282728" transform="translate(538,800)"/>
<path d="M0 0 C3.08089673 2.77280706 4.68775452 5.06326356 6 9 C5.01 9 4.02 9 3 9 C-0.22265625 3.7265625 -0.22265625 3.7265625 -1 2 C-0.67 1.34 -0.34 0.68 0 0 Z " fill="#232323" transform="translate(657,724)"/>
<path d="M0 0 C3.9492568 0.55105909 7.34920174 1.38935371 11 3 C9.4375 4.25 9.4375 4.25 7 5 C4.42998985 3.93237266 2.3469597 2.53455057 0 1 C0 0.67 0 0.34 0 0 Z " fill="#1F1F1E" transform="translate(341,642)"/>
<path d="M0 0 C1.32 0.33 2.64 0.66 4 1 C3.67 1.66 3.34 2.32 3 3 C2.34 3 1.68 3 1 3 C1 3.66 1 4.32 1 5 C0.34 5 -0.32 5 -1 5 C-1.33 6.98 -1.66 8.96 -2 11 C-2.95465783 8.83032311 -3.14401212 7.43671207 -2.3984375 5.17578125 C-1.64129615 3.4315257 -0.82390802 1.71372869 0 0 Z " fill="#303030" transform="translate(310,591)"/>
<path d="M0 0 C0.66 1.32 1.32 2.64 2 4 C0.4375 6.5 0.4375 6.5 -2 9 C-5.75 9.3125 -5.75 9.3125 -9 9 C-9 8.67 -9 8.34 -9 8 C-7.02 8 -5.04 8 -3 8 C-2.67 6.68 -2.34 5.36 -2 4 C-1.34 4 -0.68 4 0 4 C0 2.68 0 1.36 0 0 Z " fill="#333333" transform="translate(302,555)"/>
<path d="M0 0 C1.31611677 0.95336021 2.62778961 1.91285774 3.9375 2.875 C4.66839844 3.40867187 5.39929688 3.94234375 6.15234375 4.4921875 C8 6 8 6 9 8 C5.81390075 7.64598897 4.20933322 7.16972964 1.6875 5.125 C0 3 0 3 0 0 Z " fill="#242424" transform="translate(752,544)"/>
<path d="M0 0 C2.39763185 2.39763185 2.34280586 3.33273498 2.625 6.625 C2.69976562 7.44226563 2.77453125 8.25953125 2.8515625 9.1015625 C2.90054687 9.72804688 2.94953125 10.35453125 3 11 C2.01 11 1.02 11 0 11 C0 7.37 0 3.74 0 0 Z " fill="#242424" transform="translate(426,503)"/>
<path d="M0 0 C0.8971875 0.309375 0.8971875 0.309375 1.8125 0.625 C-0.25506277 3.4222908 -1.33190371 3.65192273 -4.875 4.3125 C-5.968125 4.415625 -7.06125 4.51875 -8.1875 4.625 C-3.2421875 -0.55580357 -3.2421875 -0.55580357 0 0 Z " fill="#1B1B1B" transform="translate(517.1875,288.375)"/>
<path d="M0 0 C-2.31 1.65 -4.62 3.3 -7 5 C-7.66 4.67 -8.32 4.34 -9 4 C-9 3.34 -9 2.68 -9 2 C-5.33876089 -0.74592933 -4.63002084 -1.15750521 0 0 Z " fill="#272727" transform="translate(400,873)"/>
<path d="M0 0 C2 4 2 4 1.3125 7.1875 C0.6628125 8.5796875 0.6628125 8.5796875 0 10 C-0.99 10.33 -1.98 10.66 -3 11 C-2.01 7.37 -1.02 3.74 0 0 Z " fill="#222221" transform="translate(391,804)"/>
<path d="M0 0 C-3.53411321 2.12046792 -6.94393835 2.53199289 -11 3 C-11 2.34 -11 1.68 -11 1 C-6.87831311 -0.62950412 -4.29299643 -1.26264601 0 0 Z " fill="#242323" transform="translate(594,781)"/>
<path d="M0 0 C-0.99 0.495 -0.99 0.495 -2 1 C-2 1.66 -2 2.32 -2 3 C-4.64 3.33 -7.28 3.66 -10 4 C-7.16124653 -0.25813021 -4.8137938 -0.13010254 0 0 Z " fill="#222121" transform="translate(604,777)"/>
<path d="M0 0 C0.66 0.99 1.32 1.98 2 3 C-0.85276137 5.93200474 -3.65079784 8.64315404 -7 11 C-5.22054913 6.95579349 -2.60470327 3.53921513 0 0 Z " fill="#272726" transform="translate(425,744)"/>
<path d="M0 0 C4.455 2.97 4.455 2.97 9 6 C8.01 6.33 7.02 6.66 6 7 C2.8125 5.25 2.8125 5.25 0 3 C0 2.01 0 1.02 0 0 Z " fill="#202020" transform="translate(624,692)"/>
<path d="M0 0 C0 3 0 3 -1.53125 4.60546875 C-2.1809375 5.12753906 -2.830625 5.64960937 -3.5 6.1875 C-4.1496875 6.71730469 -4.799375 7.24710938 -5.46875 7.79296875 C-5.9740625 8.19128906 -6.479375 8.58960938 -7 9 C-6.19095897 4.20719998 -3.74015409 2.86479887 0 0 Z " fill="#222322" transform="translate(420,555)"/>
<path d="M0 0 C0 0.66 0 1.32 0 2 C-3.63 1.34 -7.26 0.68 -11 0 C-11 -0.33 -11 -0.66 -11 -1 C-6.70700357 -2.26264601 -4.12168689 -1.62950412 0 0 Z " fill="#2D2C2D" transform="translate(688,558)"/>
<path d="M0 0 C0.33 0 0.66 0 1 0 C1 1.65 1 3.3 1 5 C-3.29 4.67 -7.58 4.34 -12 4 C-12 3.67 -12 3.34 -12 3 C-11.21753906 2.95101562 -10.43507813 2.90203125 -9.62890625 2.8515625 C-8.61699219 2.77679687 -7.60507812 2.70203125 -6.5625 2.625 C-5.55316406 2.55539062 -4.54382813 2.48578125 -3.50390625 2.4140625 C-2.26447266 2.20910156 -2.26447266 2.20910156 -1 2 C-0.67 1.34 -0.34 0.68 0 0 Z " fill="#020101" transform="translate(358,510)"/>
<path d="M0 0 C0.99 0.66 1.98 1.32 3 2 C1.71349294 2.69710731 0.42059335 3.38242876 -0.875 4.0625 C-1.95394531 4.63677734 -1.95394531 4.63677734 -3.0546875 5.22265625 C-3.69664062 5.47917969 -4.33859375 5.73570312 -5 6 C-5.66 5.67 -6.32 5.34 -7 5 C-4.87219421 2.65941363 -2.88437779 1.29299694 0 0 Z " fill="#252525" transform="translate(491,818)"/>
<path d="M0 0 C0.99 0.99 1.98 1.98 3 3 C-1.29 2.67 -5.58 2.34 -10 2 C-5.99186716 -0.00406642 -4.33794733 -0.46148376 0 0 Z " fill="#2E2E2D" transform="translate(401,702)"/>
<path d="M0 0 C2.00720923 0.28674418 4.0085944 0.61866701 6 1 C3 3 3 3 0 3 C0.33 5.31 0.66 7.62 1 10 C-1.29404844 6.55892734 -1.26293056 5.03160191 -1 1 C-0.67 0.67 -0.34 0.34 0 0 Z " fill="#2E2E2D" transform="translate(575,656)"/>
<path d="M0 0 C0.99 0 1.98 0 3 0 C3.99 2.31 4.98 4.62 6 7 C5.34 7.66 4.68 8.32 4 9 C0 2.25 0 2.25 0 0 Z " fill="#232222" transform="translate(314,648)"/>
<path d="M0 0 C1.13732426 3.40401948 0.83989957 5.77456664 0.0625 9.25 C-0.13214844 10.14203125 -0.32679688 11.0340625 -0.52734375 11.953125 C-0.68332031 12.62859375 -0.83929687 13.3040625 -1 14 C-3.29480503 9.9840912 -2.98836818 7.53002084 -2 3 C-1.34 2.01 -0.68 1.02 0 0 Z " fill="#323131" transform="translate(707,365)"/>
<path d="M0 0 C3.55780196 0.60990891 6.6828589 1.5783681 10 3 C10 3.33 10 3.66 10 4 C7.03 3.67 4.06 3.34 1 3 C0.67 2.01 0.34 1.02 0 0 Z " fill="#272727" transform="translate(363,335)"/>
<path d="M0 0 C1.13732426 3.40401948 0.83989957 5.77456664 0.0625 9.25 C-0.13214844 10.14203125 -0.32679688 11.0340625 -0.52734375 11.953125 C-0.68332031 12.62859375 -0.83929687 13.3040625 -1 14 C-3 10.25 -3 10.25 -3 8 C-2.34 8 -1.68 8 -1 8 C-1.20625 7.05125 -1.4125 6.1025 -1.625 5.125 C-1.74875 4.09375 -1.8725 3.0625 -2 2 C-1.34 1.34 -0.68 0.68 0 0 Z " fill="#323131" transform="translate(724,280)"/>
<path d="M0 0 C-2.55068845 2.35448165 -3.71017358 2.98327924 -7.25 3.1875 C-8.1575 3.125625 -9.065 3.06375 -10 3 C-7.29536552 -0.8183075 -4.37912428 -0.24787496 0 0 Z " fill="#1D1D1D" transform="translate(664,765)"/>
<path d="M0 0 C1.875 1.1875 1.875 1.1875 2.875 3.1875 C-0.425 2.8575 -3.725 2.5275 -7.125 2.1875 C-4.7190506 -0.2184494 -3.31450743 -1.26731167 0 0 Z " fill="#313130" transform="translate(344.125,629.8125)"/>
<path d="M0 0 C0.33 0.66 0.66 1.32 1 2 C0.22265625 4.1640625 0.22265625 4.1640625 -0.9375 6.625 C-1.31777344 7.44226563 -1.69804688 8.25953125 -2.08984375 9.1015625 C-2.39019531 9.72804688 -2.69054687 10.35453125 -3 11 C-3.66 9.68 -4.32 8.36 -5 7 C-4.01 6.67 -3.02 6.34 -2 6 C-2.33 5.01 -2.66 4.02 -3 3 C-2.01 2.01 -1.02 1.02 0 0 Z " fill="#292929" transform="translate(675,561)"/>
<path d="M0 0 C0.66 0.33 1.32 0.66 2 1 C2 2.32 2 3.64 2 5 C2.66 5.33 3.32 5.66 4 6 C3.34 6.66 2.68 7.32 2 8 C0.4375 6.8125 0.4375 6.8125 -1 5 C-0.6875 2.3125 -0.6875 2.3125 0 0 Z " fill="#202020" transform="translate(358,539)"/>
<path d="M0 0 C2.64 1.98 5.28 3.96 8 6 C6.68 6.33 5.36 6.66 4 7 C1.75 5.25 1.75 5.25 0 3 C0 2.01 0 1.02 0 0 Z " fill="#262526" transform="translate(717,514)"/>
<path d="M0 0 C1.31571603 0.2547514 2.62760376 0.52934141 3.9375 0.8125 C4.66839844 0.96332031 5.39929688 1.11414063 6.15234375 1.26953125 C6.76207031 1.51058594 7.37179687 1.75164062 8 2 C8.33 2.99 8.66 3.98 9 5 C6.23723823 4.47731534 3.6739124 3.89130413 1 3 C0.67 2.01 0.34 1.02 0 0 Z " fill="#232323" transform="translate(326,321)"/>
<path d="M0 0 C1.32 0.66 2.64 1.32 4 2 C-0.95 3.485 -0.95 3.485 -6 5 C-6 4.01 -6 3.02 -6 2 C-4.02 2 -2.04 2 0 2 C0 1.34 0 0.68 0 0 Z " fill="#2D2D2D" transform="translate(555,791)"/>
<path d="M0 0 C0.99 0.33 1.98 0.66 3 1 C3.625 3.875 3.625 3.875 4 7 C3.34 7.66 2.68 8.32 2 9 C1.34 6.03 0.68 3.06 0 0 Z " fill="#272726" transform="translate(309,634)"/>
<path d="M0 0 C0.33 0.66 0.66 1.32 1 2 C-2.96 1.67 -6.92 1.34 -11 1 C-11 0.67 -11 0.34 -11 0 C-3.19354839 -1.35111663 -3.19354839 -1.35111663 0 0 Z " fill="#373737" transform="translate(758,573)"/>
<path d="M0 0 C2.64 0.33 5.28 0.66 8 1 C8 1.66 8 2.32 8 3 C8.66 3.33 9.32 3.66 10 4 C3.47692308 3.38461538 3.47692308 3.38461538 1.0625 1.4375 C0.711875 0.963125 0.36125 0.48875 0 0 Z " fill="#232222" transform="translate(705,563)"/>
<path d="M0 0 C2.97 0.99 5.94 1.98 9 3 C5 5 5 5 2.8125 4.3125 C1 3 1 3 0 0 Z " fill="#292A29" transform="translate(401,350)"/>
<path d="M0 0 C0.66 0.33 1.32 0.66 2 1 C0.35 2.65 -1.3 4.3 -3 6 C-3.99 5.34 -4.98 4.68 -6 4 C-4.02 2.68 -2.04 1.36 0 0 Z " fill="#252525" transform="translate(450,330)"/>
<path d="M0 0 C4.95 0.99 4.95 0.99 10 2 C7 4 7 4 3.8125 3.625 C2.884375 3.41875 1.95625 3.2125 1 3 C0.67 2.01 0.34 1.02 0 0 Z " fill="#2C2C2B" transform="translate(283,307)"/>
<path d="M0 0 C0.103125 0.639375 0.20625 1.27875 0.3125 1.9375 C0.539375 2.618125 0.76625 3.29875 1 4 C1.99 4.33 2.98 4.66 4 5 C4 6.65 4 8.3 4 10 C2 8.375 2 8.375 0 6 C-0.25 2.75 -0.25 2.75 0 0 Z " fill="#333332" transform="translate(236,302)"/>
<path d="M0 0 C0.66 0.33 1.32 0.66 2 1 C1.67 3.97 1.34 6.94 1 10 C-1.56687367 6.1496895 -0.83288724 4.41430237 0 0 Z " fill="#242323" transform="translate(733,229)"/>
<path d="M0 0 C2.3125 0.1875 2.3125 0.1875 5 1 C6.8125 3.5625 6.8125 3.5625 8 6 C4.63408134 4.55746343 2.48952921 2.66735273 0 0 Z " fill="#262626" transform="translate(335,677)"/>
<path d="M0 0 C0.66 0 1.32 0 2 0 C1.34 3.3 0.68 6.6 0 10 C-0.33 10 -0.66 10 -1 10 C-1.02689216 8.52093108 -1.04634621 7.04172517 -1.0625 5.5625 C-1.07410156 4.73878906 -1.08570313 3.91507812 -1.09765625 3.06640625 C-1 1 -1 1 0 0 Z " fill="#242424" transform="translate(360,504)"/>
<path d="M0 0 C0.66 0.33 1.32 0.66 2 1 C-0.97 3.475 -0.97 3.475 -4 6 C-5.32 5.34 -6.64 4.68 -8 4 C-6.71349294 3.30289269 -5.42059335 2.61757124 -4.125 1.9375 C-3.40570313 1.55464844 -2.68640625 1.17179687 -1.9453125 0.77734375 C-1.30335938 0.52082031 -0.66140625 0.26429688 0 0 Z " fill="#272626" transform="translate(419,350)"/>
<path d="M0 0 C4.455 0.99 4.455 0.99 9 2 C6 4 6 4 3.3125 3.625 C2.549375 3.41875 1.78625 3.2125 1 3 C0.67 2.01 0.34 1.02 0 0 Z " fill="#2E2D2D" transform="translate(293,310)"/>
<path d="M0 0 C0.66 0.33 1.32 0.66 2 1 C-0.83430453 4.2542015 -2.68607774 5.5206753 -7 6 C-4.74259377 3.66475218 -2.7194239 1.81294927 0 0 Z " fill="#323130" transform="translate(533,276)"/>
<path d="M0 0 C0.66 0.33 1.32 0.66 2 1 C0.25 3.0625 0.25 3.0625 -2 5 C-4.25 4.75 -4.25 4.75 -6 4 C-4.02 2.68 -2.04 1.36 0 0 Z " fill="#282829" transform="translate(619,220)"/>
<path d="M0 0 C0.99 0.66 1.98 1.32 3 2 C-2.75 5 -2.75 5 -5 5 C-4 2 -4 2 -1.9375 0.8125 C-1.298125 0.544375 -0.65875 0.27625 0 0 Z " fill="#242424" transform="translate(481,823)"/>
<path d="M0 0 C3.73487777 0.4979837 5.81237635 0.87491756 9 3 C6.69 3.33 4.38 3.66 2 4 C2 3.01 2 2.02 2 1 C1.34 0.67 0.68 0.34 0 0 Z " fill="#2E2D2D" transform="translate(602,683)"/>
<path d="M0 0 C0.66 0.33 1.32 0.66 2 1 C-0.31 2.65 -2.62 4.3 -5 6 C-5.66 5.67 -6.32 5.34 -7 5 C-4.63707344 2.47411298 -3.33537489 1.11179163 0 0 Z " fill="#2F2E2E" transform="translate(616,637)"/>
<path d="M0 0 C0.66 0.33 1.32 0.66 2 1 C1 4 1 4 -1.0625 5.1875 C-1.701875 5.455625 -2.34125 5.72375 -3 6 C-3.66 5.34 -4.32 4.68 -5 4 C-3.35 2.68 -1.7 1.36 0 0 Z " fill="#222122" transform="translate(423,567)"/>
<path d="M0 0 C0.78375 0.2475 1.5675 0.495 2.375 0.75 C2.705 1.41 3.035 2.07 3.375 2.75 C0.405 2.42 -2.565 2.09 -5.625 1.75 C-2.625 -0.25 -2.625 -0.25 0 0 Z " fill="#303030" transform="translate(736.625,569.25)"/>
<path d="M0 0 C2.5 2.3125 2.5 2.3125 5 5 C5 5.99 5 6.98 5 8 C2.5 6.25 2.5 6.25 0 4 C0 2.68 0 1.36 0 0 Z " fill="#1F1F1E" transform="translate(368,562)"/>
<path d="M0 0 C0.33 0 0.66 0 1 0 C0.67 3.63 0.34 7.26 0 11 C-0.33 11 -0.66 11 -1 11 C-1.22174933 9.54364629 -1.42698698 8.08477044 -1.625 6.625 C-1.74101563 5.81289063 -1.85703125 5.00078125 -1.9765625 4.1640625 C-1.98429688 3.44992187 -1.99203125 2.73578125 -2 2 C-1.34 1.34 -0.68 0.68 0 0 Z " fill="#353535" transform="translate(685,477)"/>
<path d="M0 0 C2.4375 1.25 2.4375 1.25 3.4375 4.25 C-2.3125 2.5 -2.3125 2.5 -4.5625 0.25 C-2.5625 -0.75 -2.5625 -0.75 0 0 Z " fill="#2B2B2A" transform="translate(313.5625,427.75)"/>
<path d="M0 0 C2.03144641 0.93446535 4.03533587 1.93224776 6 3 C6 3.66 6 4.32 6 5 C0.25 3.25 0.25 3.25 -2 1 C-1.34 0.67 -0.68 0.34 0 0 Z " fill="#242323" transform="translate(303,423)"/>
<path d="M0 0 C0.66 0.66 1.32 1.32 2 2 C1.96712417 4.72869407 1.43602229 7.2966618 1 10 C-0.80411967 7.24075815 -1.0127245 6.11027897 -0.625 2.75 C-0.41875 1.8425 -0.2125 0.935 0 0 Z " fill="#272726" transform="translate(698,404)"/>
<path d="M0 0 C3.37462715 0.54723683 5.08235 1.0549 8 3 C5.39417629 3.93065133 4.35801776 4.14917407 1.75 3.0625 C1.1725 2.711875 0.595 2.36125 0 2 C0 1.34 0 0.68 0 0 Z " fill="#292929" transform="translate(386,344)"/>
<path d="M0 0 C0.86625 0.3403125 0.86625 0.3403125 1.75 0.6875 C0 2.25 0 2.25 -2.25 3.6875 C-4.5 3.375 -4.5 3.375 -6.25 2.6875 C-2.80384615 -0.38942308 -2.80384615 -0.38942308 0 0 Z " fill="#1F1F1F" transform="translate(656.25,197.3125)"/>
<path d="M0 0 C0.66 0.33 1.32 0.66 2 1 C0.875 2.9375 0.875 2.9375 -1 5 C-4.1875 5.75 -4.1875 5.75 -7 6 C-4.83312509 3.72478134 -2.54379491 1.84205838 0 0 Z " fill="#303030" transform="translate(689,174)"/>
<path d="M0 0 C0.99 0.33 1.98 0.66 3 1 C2.01 1.33 1.02 1.66 0 2 C0 1.34 0 0.68 0 0 Z " fill="#424340" transform="translate(480,304)"/>
<path d="" fill="#434141" transform="translate(0,0)"/>
<path d="M0 0 C3 1 3 1 3 1 Z " fill="#4A4A4A" transform="translate(320,555)"/>
<path d="M0 0 C0.66 0 1.32 0 2 0 C1.67 0.66 1.34 1.32 1 2 C0.67 1.34 0.34 0.68 0 0 Z " fill="#3E3D3C" transform="translate(406,480)"/>
<path d="M0 0 C2 1 2 1 2 1 Z " fill="#444342" transform="translate(628,774)"/>
<path d="" fill="#464444" transform="translate(0,0)"/>
<path d="" fill="#454444" transform="translate(0,0)"/>
<path d="M0 0 C2 1 2 1 2 1 Z " fill="#3C3A3B" transform="translate(393,576)"/>
<path d="M0 0 C2 1 2 1 2 1 Z " fill="#383739" transform="translate(416,568)"/>
<path d="M0 0 C2 1 2 1 2 1 Z " fill="#4E4D4F" transform="translate(297,565)"/>
<path d="M0 0 C2 1 2 1 2 1 Z " fill="#474546" transform="translate(336,532)"/>
<path d="M0 0 C2 1 2 1 2 1 Z " fill="#3E3D3E" transform="translate(542,528)"/>
<path d="M0 0 C2 1 2 1 2 1 Z " fill="#403F40" transform="translate(526,528)"/>
<path d="M0 0 C2 1 2 1 2 1 Z " fill="#3B3A3B" transform="translate(444,519)"/>
<path d="" fill="#464545" transform="translate(0,0)"/>
<path d="M0 0 C2 1 2 1 2 1 Z " fill="#3E3F3E" transform="translate(395,481)"/>
<path d="M0 0 C2 1 2 1 2 1 Z " fill="#424342" transform="translate(391,344)"/>
<path d="" fill="#4D4D4C" transform="translate(0,0)"/>
<path d="" fill="#414140" transform="translate(0,0)"/>
<path d="" fill="#413E3E" transform="translate(0,0)"/>
<path d="" fill="#434142" transform="translate(0,0)"/>
<path d="" fill="#434343" transform="translate(0,0)"/>
<path d="" fill="#393938" transform="translate(0,0)"/>
<path d="" fill="#484846" transform="translate(0,0)"/>
<path d="" fill="#4A4948" transform="translate(0,0)"/>
<path d="" fill="#474744" transform="translate(0,0)"/>
<path d="" fill="#444242" transform="translate(0,0)"/>
<path d="" fill="#4A4849" transform="translate(0,0)"/>
<path d="" fill="#3F3F3E" transform="translate(0,0)"/>
<path d="" fill="#414042" transform="translate(0,0)"/>
<path d="" fill="#433F40" transform="translate(0,0)"/>
<path d="" fill="#413D3E" transform="translate(0,0)"/>
<path d="" fill="#423F40" transform="translate(0,0)"/>
<path d="" fill="#464447" transform="translate(0,0)"/>
<path d="" fill="#454544" transform="translate(0,0)"/>
<path d="" fill="#414041" transform="translate(0,0)"/>
<path d="" fill="#414040" transform="translate(0,0)"/>
<path d="" fill="#454643" transform="translate(0,0)"/>
<path d="" fill="#464647" transform="translate(0,0)"/>
<path d="" fill="#424142" transform="translate(0,0)"/>
<path d="" fill="#464444" transform="translate(0,0)"/>
<path d="" fill="#424343" transform="translate(0,0)"/>
<path d="" fill="#434342" transform="translate(0,0)"/>
<path d="" fill="#424143" transform="translate(0,0)"/>
<path d="" fill="#444543" transform="translate(0,0)"/>
<path d="" fill="#424141" transform="translate(0,0)"/>
<path d="" fill="#424441" transform="translate(0,0)"/>
<path d="" fill="#3F3E3E" transform="translate(0,0)"/>
<path d="" fill="#3D3C3C" transform="translate(0,0)"/>
<path d="" fill="#444543" transform="translate(0,0)"/>
<path d="" fill="#464544" transform="translate(0,0)"/>
<path d="" fill="#474746" transform="translate(0,0)"/>
<path d="" fill="#484848" transform="translate(0,0)"/>
<path d="" fill="#474444" transform="translate(0,0)"/>
<path d="" fill="#464647" transform="translate(0,0)"/>
<path d="" fill="#424241" transform="translate(0,0)"/>
<path d="" fill="#404143" transform="translate(0,0)"/>
<path d="" fill="#424343" transform="translate(0,0)"/>
<path d="" fill="#434544" transform="translate(0,0)"/>
<path d="" fill="#3C3E3D" transform="translate(0,0)"/>
<path d="" fill="#424242" transform="translate(0,0)"/>
<path d="" fill="#434342" transform="translate(0,0)"/>
<path d="" fill="#444243" transform="translate(0,0)"/>
<path d="" fill="#444342" transform="translate(0,0)"/>
<path d="" fill="#464442" transform="translate(0,0)"/>
<path d="" fill="#434142" transform="translate(0,0)"/>
<path d="" fill="#454445" transform="translate(0,0)"/>
<path d="" fill="#424241" transform="translate(0,0)"/>
<path d="" fill="#444545" transform="translate(0,0)"/>
<path d="" fill="#3F3F40" transform="translate(0,0)"/>
<path d="" fill="#464445" transform="translate(0,0)"/>
<path d="" fill="#414143" transform="translate(0,0)"/>
<path d="" fill="#484748" transform="translate(0,0)"/>
<path d="" fill="#393B3C" transform="translate(0,0)"/>
<path d="" fill="#4A494A" transform="translate(0,0)"/>
<path d="" fill="#494948" transform="translate(0,0)"/>
<path d="" fill="#484847" transform="translate(0,0)"/>
<path d="" fill="#464544" transform="translate(0,0)"/>
<path d="" fill="#434543" transform="translate(0,0)"/>
<path d="" fill="#38393B" transform="translate(0,0)"/>
<path d="" fill="#434243" transform="translate(0,0)"/>
<path d="" fill="#474646" transform="translate(0,0)"/>
<path d="" fill="#505050" transform="translate(0,0)"/>
<path d="" fill="#4D504E" transform="translate(0,0)"/>
<path d="" fill="#403F3F" transform="translate(0,0)"/>
<path d="" fill="#4B4A4B" transform="translate(0,0)"/>
<path d="" fill="#4A4B4A" transform="translate(0,0)"/>
<path d="" fill="#525450" transform="translate(0,0)"/>
<path d="" fill="#3E3F3D" transform="translate(0,0)"/>
<path d="" fill="#3E413E" transform="translate(0,0)"/>
<path d="" fill="#3C3B3B" transform="translate(0,0)"/>
<path d="" fill="#363738" transform="translate(0,0)"/>
<path d="" fill="#413D3D" transform="translate(0,0)"/>
<path d="" fill="#373A3A" transform="translate(0,0)"/>
<path d="" fill="#424142" transform="translate(0,0)"/>
<path d="" fill="#4C4C4C" transform="translate(0,0)"/>
<path d="" fill="#484647" transform="translate(0,0)"/>
<path d="" fill="#3F3F3F" transform="translate(0,0)"/>
<path d="" fill="#404141" transform="translate(0,0)"/>
<path d="" fill="#3D3D3C" transform="translate(0,0)"/>
<path d="" fill="#403F3F" transform="translate(0,0)"/>
<path d="" fill="#444445" transform="translate(0,0)"/>
<path d="" fill="#424142" transform="translate(0,0)"/>
<path d="" fill="#38383A" transform="translate(0,0)"/>
<path d="" fill="#39373A" transform="translate(0,0)"/>
<path d="" fill="#3C3D3B" transform="translate(0,0)"/>
<path d="" fill="#393A3A" transform="translate(0,0)"/>
<path d="" fill="#504E4F" transform="translate(0,0)"/>
<path d="" fill="#464547" transform="translate(0,0)"/>
<path d="" fill="#403F41" transform="translate(0,0)"/>
<path d="" fill="#3A3A38" transform="translate(0,0)"/>
<path d="" fill="#3E3E3E" transform="translate(0,0)"/>
<path d="" fill="#51504F" transform="translate(0,0)"/>
<path d="" fill="#40403E" transform="translate(0,0)"/>
<path d="" fill="#393B3A" transform="translate(0,0)"/>
<path d="" fill="#3C3B3D" transform="translate(0,0)"/>
<path d="" fill="#40403F" transform="translate(0,0)"/>
<path d="" fill="#454844" transform="translate(0,0)"/>
<path d="" fill="#3E3E3F" transform="translate(0,0)"/>
<path d="" fill="#403A3C" transform="translate(0,0)"/>
<path d="" fill="#3B3B3C" transform="translate(0,0)"/>
<path d="" fill="#4D4B4E" transform="translate(0,0)"/>
<path d="" fill="#464746" transform="translate(0,0)"/>
<path d="" fill="#3C3C3D" transform="translate(0,0)"/>
<path d="" fill="#3B3B3A" transform="translate(0,0)"/>
<path d="" fill="#3C3A3C" transform="translate(0,0)"/>
<path d="" fill="#3F3D3C" transform="translate(0,0)"/>
<path d="" fill="#3D3C3B" transform="translate(0,0)"/>
<path d="" fill="#49494A" transform="translate(0,0)"/>
<path d="" fill="#40403F" transform="translate(0,0)"/>
<path d="" fill="#3E3D3C" transform="translate(0,0)"/>
<path d="" fill="#404141" transform="translate(0,0)"/>
<path d="" fill="#4B494A" transform="translate(0,0)"/>
<path d="" fill="#404040" transform="translate(0,0)"/>
<path d="" fill="#4C4E4E" transform="translate(0,0)"/>
<path d="" fill="#3B3C3D" transform="translate(0,0)"/>
<path d="" fill="#403F3E" transform="translate(0,0)"/>
<path d="" fill="#474646" transform="translate(0,0)"/>
<path d="" fill="#444546" transform="translate(0,0)"/>
<path d="" fill="#444444" transform="translate(0,0)"/>
<path d="" fill="#474546" transform="translate(0,0)"/>
<path d="" fill="#4D4B4C" transform="translate(0,0)"/>
<path d="" fill="#4E4C4B" transform="translate(0,0)"/>
<path d="" fill="#4A4C4C" transform="translate(0,0)"/>
<path d="" fill="#474747" transform="translate(0,0)"/>
<path d="" fill="#414042" transform="translate(0,0)"/>
<path d="" fill="#3F3E3F" transform="translate(0,0)"/>
<path d="" fill="#41403D" transform="translate(0,0)"/>
<path d="" fill="#40413E" transform="translate(0,0)"/>
<path d="" fill="#414343" transform="translate(0,0)"/>
<path d="" fill="#414240" transform="translate(0,0)"/>
<path d="" fill="#403F40" transform="translate(0,0)"/>
<path d="" fill="#454242" transform="translate(0,0)"/>
<path d="" fill="#424242" transform="translate(0,0)"/>
<path d="" fill="#404142" transform="translate(0,0)"/>
<path d="" fill="#444344" transform="translate(0,0)"/>
<path d="" fill="#434140" transform="translate(0,0)"/>
<path d="" fill="#414040" transform="translate(0,0)"/>
<path d="" fill="#484744" transform="translate(0,0)"/>
<path d="" fill="#454745" transform="translate(0,0)"/>
<path d="" fill="#413F42" transform="translate(0,0)"/>
<path d="" fill="#3E3E3D" transform="translate(0,0)"/>
<path d="" fill="#43403F" transform="translate(0,0)"/>
<path d="" fill="#444341" transform="translate(0,0)"/>
<path d="" fill="#494745" transform="translate(0,0)"/>
<path d="" fill="#444342" transform="translate(0,0)"/>
<path d="" fill="#434441" transform="translate(0,0)"/>
<path d="" fill="#454543" transform="translate(0,0)"/>
<path d="" fill="#464444" transform="translate(0,0)"/>
<path d="" fill="#454646" transform="translate(0,0)"/>
<path d="" fill="#3D3E3D" transform="translate(0,0)"/>
<path d="" fill="#474646" transform="translate(0,0)"/>
<path d="" fill="#464746" transform="translate(0,0)"/>
<path d="" fill="#4C4B4A" transform="translate(0,0)"/>
<path d="" fill="#4A4849" transform="translate(0,0)"/>
<path d="" fill="#424040" transform="translate(0,0)"/>
<path d="" fill="#434141" transform="translate(0,0)"/>
<path d="" fill="#444241" transform="translate(0,0)"/>
<path d="" fill="#3F4142" transform="translate(0,0)"/>
<path d="" fill="#494746" transform="translate(0,0)"/>
<path d="" fill="#4A4A4B" transform="translate(0,0)"/>
<path d="" fill="#3B3B3E" transform="translate(0,0)"/>
<path d="" fill="#4F4D4D" transform="translate(0,0)"/>
<path d="" fill="#4D494C" transform="translate(0,0)"/>
<path d="" fill="#4C4C4C" transform="translate(0,0)"/>
<path d="" fill="#444344" transform="translate(0,0)"/>
<path d="" fill="#414141" transform="translate(0,0)"/>
<path d="" fill="#414240" transform="translate(0,0)"/>
<path d="" fill="#454242" transform="translate(0,0)"/>
<path d="" fill="#424142" transform="translate(0,0)"/>
<path d="" fill="#3F3F3F" transform="translate(0,0)"/>
<path d="" fill="#414141" transform="translate(0,0)"/>
<path d="" fill="#41403E" transform="translate(0,0)"/>
<path d="" fill="#403D3D" transform="translate(0,0)"/>
<path d="" fill="#434342" transform="translate(0,0)"/>
<path d="" fill="#434141" transform="translate(0,0)"/>
<path d="" fill="#444340" transform="translate(0,0)"/>
<path d="" fill="#3F3D3D" transform="translate(0,0)"/>
<path d="" fill="#434340" transform="translate(0,0)"/>
<path d="" fill="#424342" transform="translate(0,0)"/>
<path d="" fill="#404141" transform="translate(0,0)"/>
<path d="" fill="#414140" transform="translate(0,0)"/>
<path d="" fill="#404240" transform="translate(0,0)"/>
<path d="" fill="#3F3F3E" transform="translate(0,0)"/>
<path d="" fill="#403F3E" transform="translate(0,0)"/>
<path d="" fill="#424042" transform="translate(0,0)"/>
<path d="" fill="#474646" transform="translate(0,0)"/>
</svg>
